<svg width="2501" height="545" viewBox="0 0 2501 545" fill="none" xmlns="http://www.w3.org/2000/svg">
    <g clip-path="url(#clip0_22_73)">
        <path d="M987.832 308.208L944.984 192.708C943.236 187.984 936.554 187.984 934.802 192.708L891.962 308.216C891.657 309.037 891.556 309.919 891.667 310.788C891.778 311.656 892.097 312.485 892.597 313.204C893.097 313.922 893.764 314.509 894.54 314.915C895.316 315.32 896.179 315.531 897.055 315.531H982.739C983.614 315.531 984.477 315.319 985.253 314.913C986.029 314.508 986.696 313.92 987.196 313.201C987.696 312.482 988.014 311.653 988.124 310.784C988.235 309.915 988.133 309.033 987.828 308.212M1007.62 373.129H872.172C871.064 373.129 869.982 373.469 869.073 374.102C868.163 374.734 867.468 375.63 867.083 376.669L840.416 448.537C840.03 449.576 839.336 450.472 838.426 451.105C837.516 451.737 836.435 452.077 835.326 452.077H776.617C775.729 452.077 774.855 451.859 774.072 451.443C773.288 451.027 772.618 450.424 772.121 449.689C771.623 448.954 771.314 448.108 771.219 447.226C771.125 446.343 771.248 445.451 771.578 444.627L906.745 107.907C907.15 106.901 907.846 106.04 908.745 105.433C909.643 104.827 910.703 104.503 911.787 104.505H968.003C970.218 104.505 972.212 105.851 973.041 107.907L1108.2 444.624C1108.54 445.448 1108.66 446.341 1108.57 447.224C1108.47 448.108 1108.16 448.955 1107.67 449.691C1107.17 450.427 1106.5 451.03 1105.71 451.446C1104.93 451.863 1104.05 452.081 1103.17 452.081H1044.47C1043.36 452.08 1042.28 451.74 1041.37 451.107C1040.46 450.473 1039.76 449.576 1039.38 448.537L1012.71 376.669C1012.32 375.63 1011.63 374.734 1010.72 374.102C1009.81 373.469 1008.73 373.129 1007.62 373.129M1135.71 222.676H1185.92C1187.36 222.676 1188.75 223.248 1189.76 224.267C1190.78 225.285 1191.35 226.666 1191.35 228.106V446.647C1191.35 448.087 1190.78 449.468 1189.76 450.487C1188.75 451.505 1187.36 452.077 1185.92 452.077H1135.71C1134.27 452.077 1132.89 451.505 1131.87 450.487C1130.85 449.468 1130.28 448.087 1130.28 446.647V228.102C1130.28 226.662 1130.85 225.281 1131.87 224.263C1132.89 223.245 1134.27 222.676 1135.71 222.676ZM1374.49 275.837C1374.49 277.277 1373.92 278.658 1372.9 279.676C1371.88 280.694 1370.5 281.266 1369.06 281.266H1367.54C1342.71 281.266 1324.5 287.224 1312.91 299.141C1301.32 311.057 1295.54 330.756 1295.54 358.23V446.647C1295.54 448.087 1294.97 449.468 1293.95 450.487C1292.93 451.505 1291.55 452.077 1290.11 452.077H1240.39C1238.95 452.077 1237.57 451.505 1236.55 450.487C1235.53 449.468 1234.96 448.087 1234.96 446.647V228.102C1234.96 226.662 1235.53 225.281 1236.55 224.263C1237.57 223.245 1238.95 222.673 1240.39 222.673H1289.61C1291.05 222.673 1292.43 223.245 1293.45 224.263C1294.47 225.281 1295.04 226.662 1295.04 228.102V271.33H1296.04C1301.99 253.455 1311.43 239.725 1324.34 230.119C1337.25 220.522 1353.14 215.719 1372 215.719H1374.49V275.837ZM1511.79 273.817C1510.35 273.817 1508.96 274.389 1507.95 275.407C1506.93 276.425 1506.36 277.806 1506.36 279.246V370.147C1506.36 379.417 1508.17 386.037 1511.81 390.008C1515.45 393.979 1521.74 395.967 1530.68 395.967H1535.68C1537.12 395.967 1538.5 396.539 1539.52 397.557C1540.54 398.575 1541.11 399.956 1541.11 401.396V447.14C1541.11 448.58 1540.54 449.961 1539.52 450.979C1538.5 451.997 1537.12 452.569 1535.68 452.569H1514.29C1492.12 452.569 1475.07 446.861 1463.15 435.44C1451.23 424.02 1445.28 407.061 1445.28 384.546V279.246C1445.28 277.806 1444.7 276.425 1443.69 275.407C1442.67 274.389 1441.29 273.817 1439.85 273.817H1408.5C1407.06 273.817 1405.68 273.245 1404.66 272.226C1403.64 271.208 1403.07 269.827 1403.07 268.387V228.102C1403.07 226.662 1403.64 225.281 1404.66 224.263C1405.68 223.245 1407.06 222.673 1408.5 222.673H1439.85C1441.29 222.673 1442.67 222.101 1443.69 221.082C1444.71 220.064 1445.28 218.683 1445.28 217.243V136.243C1445.28 134.803 1445.85 133.422 1446.87 132.403C1447.89 131.385 1449.27 130.813 1450.71 130.813H1500.92C1502.36 130.813 1503.74 131.385 1504.76 132.403C1505.78 133.422 1506.35 134.803 1506.35 136.243V217.243C1506.35 218.683 1506.92 220.064 1507.94 221.082C1508.96 222.101 1510.34 222.673 1511.78 222.673H1548.09C1549.53 222.673 1550.91 223.245 1551.93 224.263C1552.95 225.281 1553.52 226.662 1553.52 228.102V268.391C1553.52 269.831 1552.95 271.212 1551.93 272.23C1550.91 273.248 1549.53 273.82 1548.09 273.82L1511.79 273.817ZM1741.72 384.05C1753.14 372.134 1758.85 356.576 1758.85 337.373C1758.85 318.181 1753.14 302.616 1741.72 290.699C1730.3 278.783 1715.32 272.825 1696.78 272.825C1678.24 272.825 1663.27 278.783 1651.84 290.699C1640.43 302.616 1634.71 318.181 1634.71 337.373C1634.71 356.576 1640.43 372.134 1651.84 384.05C1663.27 395.967 1678.24 401.925 1696.78 401.925C1715.32 401.925 1730.3 395.967 1741.72 384.05ZM1625.78 445.123C1608.89 435.527 1595.57 421.537 1585.81 403.166C1576.04 384.796 1571.16 362.867 1571.16 337.373C1571.16 311.89 1576.04 289.954 1585.81 271.583C1595.57 253.213 1608.89 239.233 1625.78 229.626C1642.66 220.027 1661.19 215.227 1681.39 215.227C1699.26 215.227 1714.57 218.702 1727.32 225.652C1740.06 232.602 1750.24 242.372 1757.86 254.95H1758.85V228.102C1758.85 226.662 1759.42 225.281 1760.44 224.263C1761.46 223.245 1762.84 222.673 1764.28 222.673H1813.99C1815.43 222.673 1816.82 223.245 1817.83 224.263C1818.85 225.281 1819.42 226.662 1819.42 228.102V446.644C1819.42 448.084 1818.85 449.465 1817.83 450.483C1816.82 451.501 1815.43 452.073 1813.99 452.073H1764.28C1762.84 452.073 1761.46 451.501 1760.44 450.483C1759.42 449.465 1758.85 448.084 1758.85 446.644V419.799H1757.86C1750.24 432.385 1740.06 442.144 1727.32 449.094C1714.57 456.044 1699.27 459.519 1681.39 459.519C1661.19 459.519 1642.66 454.719 1625.78 445.123ZM2026.2 384.05C2037.62 372.134 2043.33 356.576 2043.33 337.373C2043.33 318.181 2037.62 302.616 2026.2 290.699C2014.78 278.783 1999.8 272.825 1981.26 272.825C1962.72 272.825 1947.75 278.783 1936.33 290.699C1924.91 302.616 1919.19 318.181 1919.19 337.373C1919.19 356.576 1924.91 372.134 1936.33 384.05C1947.75 395.967 1962.72 401.925 1981.26 401.925C1999.8 401.925 2014.78 395.967 2026.2 384.05ZM1950.73 449.094C1937.98 442.144 1927.8 432.385 1920.19 419.799H1919.19V446.644C1919.19 448.084 1918.62 449.465 1917.6 450.483C1916.58 451.501 1915.2 452.073 1913.76 452.073H1863.55C1862.11 452.073 1860.73 451.501 1859.71 450.483C1858.69 449.465 1858.12 448.084 1858.12 446.644V109.923C1858.12 108.483 1858.69 107.102 1859.71 106.084C1860.73 105.066 1862.11 104.494 1863.55 104.494H1913.76C1915.2 104.494 1916.58 105.066 1917.6 106.084C1918.62 107.102 1919.19 108.483 1919.19 109.923V254.947H1920.19C1927.8 242.368 1937.98 232.602 1950.73 225.652C1963.47 218.698 1978.78 215.223 1996.66 215.223C2016.84 215.223 2035.38 220.023 2052.27 229.623C2069.15 239.23 2082.47 253.209 2092.24 271.576C2102 289.957 2106.89 311.893 2106.89 337.377C2106.89 362.871 2102 384.796 2092.24 403.17C2082.47 421.54 2069.15 435.531 2052.27 445.123C2035.39 454.723 2016.85 459.526 1996.66 459.526C1978.78 459.526 1963.47 456.052 1950.73 449.098M2191.49 452.077H2141.28C2139.84 452.077 2138.46 451.505 2137.44 450.487C2136.42 449.468 2135.85 448.087 2135.85 446.647V109.934C2135.85 108.494 2136.42 107.113 2137.44 106.095C2138.46 105.077 2139.84 104.505 2141.28 104.505H2191.49C2192.93 104.505 2194.31 105.077 2195.33 106.095C2196.35 107.113 2196.92 108.494 2196.92 109.934V446.647C2196.92 448.087 2196.35 449.468 2195.33 450.487C2194.31 451.505 2192.93 452.077 2191.49 452.077ZM2309.94 275.808C2301.61 282.301 2295.99 291.677 2293.08 303.941C2292.28 307.321 2294.92 310.565 2298.4 310.565H2393.96C2397.27 310.565 2399.88 307.597 2399.34 304.324C2397.43 292.723 2392.46 283.474 2384.42 276.553C2374.99 268.445 2362.65 264.391 2347.43 264.391C2332.2 264.391 2319.7 268.195 2309.94 275.808ZM2432.33 247.255C2451.86 268.611 2461.63 298.819 2461.63 337.873V344.359C2461.63 345.799 2461.06 347.18 2460.04 348.199C2459.02 349.217 2457.64 349.789 2456.2 349.789H2296.55C2295.76 349.791 2294.97 349.966 2294.25 350.302C2293.53 350.639 2292.89 351.128 2292.38 351.737C2291.87 352.346 2291.5 353.059 2291.29 353.826C2291.08 354.594 2291.04 355.398 2291.18 356.181C2293.73 370.69 2300.15 382.215 2310.43 390.754C2322.18 400.528 2337 405.403 2354.88 405.403C2377.95 405.403 2399.31 396.397 2418.95 378.382C2421.35 376.181 2425.16 376.648 2427.02 379.323L2451.43 414.362C2452.19 415.452 2452.53 416.785 2452.38 418.108C2452.23 419.431 2451.59 420.651 2450.6 421.537C2438.62 432.025 2425.29 440.876 2410.98 447.856C2395.09 455.632 2376.39 459.526 2354.88 459.526C2330.05 459.526 2308.36 454.473 2289.83 444.381C2271.28 434.289 2256.89 420.056 2246.63 401.679C2236.37 383.308 2231.24 362.042 2231.24 337.873C2231.24 313.714 2236.2 292.364 2246.13 273.82C2256.06 255.287 2269.97 240.887 2287.84 230.622C2305.72 220.367 2326.57 215.23 2350.41 215.23C2385.48 215.23 2412.8 225.909 2432.33 247.255ZM1197.91 141.882C1197.91 162.363 1181.31 178.967 1160.83 178.967C1140.34 178.967 1123.73 162.363 1123.73 141.879C1123.73 121.394 1140.34 104.79 1160.83 104.79C1181.31 104.79 1197.91 121.398 1197.91 141.882Z" fill="#333333"/>
        <path d="M286.135 6.56743L47.3737 105.362C34.0963 110.857 34.2339 129.72 47.5945 135.016L287.351 230.093C308.417 238.448 331.877 238.448 352.942 230.093L592.703 135.012C606.06 129.72 606.204 110.861 592.92 105.366L354.166 6.56381C332.383 -2.44966 307.914 -2.44966 286.132 6.56381" fill="#FCB400"/>
        <path d="M341.42 282.008V519.528C341.42 530.822 352.812 538.561 363.313 534.398L630.475 430.698C633.455 429.517 636.011 427.468 637.812 424.817C639.612 422.165 640.575 419.034 640.574 415.828V178.312C640.574 167.015 629.183 159.279 618.682 163.442L351.519 267.142C348.54 268.324 345.985 270.373 344.184 273.024C342.383 275.676 341.421 278.803 341.42 282.008Z" fill="#18BFFF"/>
        <path d="M279.033 294.265L199.745 332.548L191.695 336.439L24.3229 416.636C13.7169 421.754 0.171631 414.022 0.171631 402.236V179.307C0.171631 175.043 2.35799 171.362 5.29002 168.593C6.49287 167.395 7.85751 166.372 9.34418 165.552C13.3404 163.152 19.0452 162.512 23.8957 164.43L277.701 264.995C290.602 270.114 291.616 288.187 279.033 294.265Z" fill="#F82B60"/>
        <path d="M279.033 294.265L199.745 332.548L5.29004 168.589C6.49313 167.393 7.85775 166.371 9.34421 165.552C13.3405 163.152 19.0452 162.512 23.8958 164.43L277.701 264.995C290.602 270.114 291.616 288.187 279.033 294.265Z" fill="black" fill-opacity="0.25"/>
    </g>
    <defs>
        <clipPath id="clip0_22_73">
            <rect width="2500" height="544" fill="white" transform="translate(0.171631 0.562378)"/>
        </clipPath>
    </defs>
</svg>
