<svg width="140" height="29" viewBox="0 0 140 29" fill="none" xmlns="http://www.w3.org/2000/svg">
    <path d="M8.61383 19.8545C7.87438 19.1118 7.28941 18.2312 6.89243 17.2631C6.49544 16.295 6.29424 15.2585 6.30034 14.2129C6.29765 13.1673 6.50443 12.1317 6.90857 11.1666C7.31271 10.2015 7.90612 9.3263 8.65408 8.59214C8.97448 8.30868 9.23339 7.96313 9.41494 7.57662C9.59649 7.19011 9.69687 6.77078 9.70993 6.34432C9.72299 5.91786 9.64845 5.49323 9.49089 5.09643C9.33333 4.69963 9.09605 4.33902 8.79359 4.03667C8.49113 3.73432 8.12985 3.4966 7.73187 3.33806C7.33389 3.17953 6.90758 3.1035 6.47906 3.11466C6.05053 3.12581 5.6288 3.2239 5.23969 3.40293C4.85057 3.58195 4.50227 3.83814 4.2161 4.15581C1.52812 6.81539 0.0116131 10.4287 0.00012676 14.2011C-0.0113596 17.9735 1.48312 21.5959 4.15485 24.2717C4.44009 24.5889 4.78725 24.845 5.17516 25.0243C5.56308 25.2037 5.98363 25.3025 6.41117 25.3148C6.83872 25.3271 7.26429 25.2526 7.66196 25.0958C8.05963 24.9391 8.42106 24.7033 8.72422 24.403C9.02738 24.1027 9.26591 23.7441 9.42528 23.349C9.58464 22.954 9.66151 22.5308 9.65118 22.1052C9.64085 21.6796 9.54355 21.2605 9.3652 20.8736C9.18686 20.4867 8.93121 20.1399 8.61383 19.8545Z" fill="#FFDA00"/>
    <path d="M8.65394 8.59195C10.1613 7.10669 12.1989 6.27687 14.32 6.28437C16.4411 6.29188 18.4727 7.13611 19.9694 8.63201C20.2536 8.95259 20.6007 9.21191 20.9894 9.39403C21.378 9.57616 21.8 9.67725 22.2293 9.69108C22.6587 9.7049 23.0863 9.63118 23.486 9.47445C23.8856 9.31771 24.2489 9.08127 24.5533 8.77966C24.8578 8.47805 25.0971 8.11765 25.2564 7.72061C25.4158 7.32357 25.4919 6.89828 25.48 6.47089C25.4681 6.04351 25.3686 5.62305 25.1874 5.23538C25.0063 4.8477 24.7474 4.501 24.4266 4.21659C23.1086 2.88782 21.5398 1.83131 19.8104 1.10772C18.0809 0.384131 16.2249 0.00772441 14.3489 0.000117646C12.4729 -0.00748912 10.6138 0.353854 8.87851 1.06339C7.1432 1.77293 5.56582 2.81669 4.23695 4.13472C3.91539 4.41672 3.65503 4.76107 3.4718 5.14668C3.28857 5.53229 3.18633 5.95106 3.17133 6.37736C3.15633 6.80366 3.22889 7.22853 3.38457 7.62595C3.54025 8.02338 3.77578 8.385 4.07673 8.6887C4.37768 8.99239 4.73774 9.23177 5.13485 9.39218C5.53197 9.55258 5.95779 9.63065 6.38627 9.62159C6.81475 9.61253 7.23686 9.51655 7.62678 9.33951C8.01669 9.16246 8.36621 8.90809 8.65394 8.59195Z" fill="#67B3FF"/>
    <path d="M19.9503 19.8944C19.2044 20.6319 18.3196 21.2156 17.3466 21.6122C16.3737 22.0088 15.3317 22.2105 14.2803 22.2058C13.2292 22.2073 12.1883 22.0001 11.2187 21.5964C10.249 21.1926 9.36998 20.6004 8.63308 19.8543C8.3483 19.5354 8.00111 19.2778 7.61278 19.0971C7.22445 18.9164 6.80315 18.8165 6.37467 18.8035C5.9462 18.7905 5.51957 18.8646 5.1209 19.0215C4.72223 19.1783 4.35992 19.4144 4.05615 19.7155C3.75238 20.0165 3.51354 20.3761 3.35425 20.7722C3.19496 21.1683 3.11858 21.5927 3.12979 22.0192C3.141 22.4457 3.23955 22.8654 3.41942 23.2527C3.59929 23.64 3.85668 23.9867 4.17585 24.2715C5.49615 25.6002 7.06691 26.6564 8.79812 27.3798C10.5293 28.1031 12.3869 28.4793 14.2645 28.4867C16.142 28.4942 18.0026 28.1327 19.7395 27.4231C21.4765 26.7136 23.0556 25.6698 24.3865 24.3516C24.6806 24.0617 24.9144 23.717 25.0746 23.3371C25.2348 22.9573 25.3182 22.5498 25.3202 22.1378C25.3221 21.7258 25.2425 21.3175 25.0859 20.9362C24.9293 20.5549 24.6988 20.208 24.4075 19.9153C24.1162 19.6226 23.7699 19.3899 23.3883 19.2305C23.0066 19.0711 22.5972 18.988 22.1833 18.9861C21.7694 18.9841 21.3591 19.0633 20.976 19.2192C20.5929 19.375 20.2443 19.6045 19.9503 19.8944Z" fill="#EB5A68"/>
    <path d="M8.6539 8.59198C8.21239 9.03089 7.64986 9.3294 7.03765 9.44964C6.42544 9.56988 5.79114 9.50643 5.21522 9.26734C4.63929 9.02824 4.14769 8.62428 3.80278 8.1067C3.45786 7.58911 3.27516 6.98122 3.27787 6.36014C3.28058 5.73906 3.46856 5.13277 3.81798 4.61818C4.16739 4.10359 4.6625 3.70389 5.24048 3.46978C5.81847 3.23567 6.4533 3.1777 7.06444 3.30322C7.67557 3.42874 8.23549 3.7321 8.67315 4.17481C9.25622 4.76461 9.5814 5.55991 9.57779 6.38734C9.57419 7.21477 9.24209 8.00723 8.6539 8.59198Z" fill="#47A1FF"/>
    <path d="M8.59279 24.2715C8.15112 24.7102 7.58846 25.0085 6.97621 25.1285C6.36395 25.2485 5.72968 25.1848 5.15385 24.9455C4.57802 24.7062 4.08658 24.302 3.74187 23.7843C3.39716 23.2666 3.2147 22.6586 3.21766 22.0376C3.22061 21.4165 3.40883 20.8103 3.75845 20.2958C4.10807 19.7814 4.60333 19.3819 5.18141 19.148C5.75949 18.9141 6.39434 18.8564 7.00543 18.9821C7.61651 19.1079 8.17631 19.4115 8.61379 19.8543C9.19664 20.4444 9.5215 21.2398 9.51756 22.0672C9.51363 22.8947 9.18122 23.687 8.59279 24.2715Z" fill="#D5465F"/>
    <path d="M38.4441 17.2854C39.3523 16.6026 39.4731 16.984 40.2396 17.7469C40.6228 18.1284 41.6711 18.792 40.9851 19.3529C39.5536 20.5164 38.2621 21.0389 36.4351 21.0389C32.2998 21.0198 29.3756 17.9472 29.6101 13.8715C29.7098 12.0461 30.4361 10.3182 31.8693 9.13381C33.1801 8.02951 34.8128 7.54878 36.5278 7.58884C37.3684 7.58636 38.2011 7.74975 38.9778 8.06958C39.5039 8.25864 39.9996 8.52266 40.4496 8.85338C41.3578 9.55009 40.9343 9.95767 40.2273 10.6596C40.0663 10.8199 39.9053 10.9818 39.7636 11.1421C39.4013 11.5026 39.1581 11.7639 38.6751 11.4225C37.7476 10.7798 36.5751 10.4384 35.4673 10.7258C31.8973 11.628 32.0583 17.9525 36.4368 17.9734C37.1627 17.9639 37.8663 17.7227 38.4441 17.2854ZM137.681 21.1173C137.538 21.118 137.396 21.0904 137.263 21.0363C137.131 20.9821 137.01 20.9023 136.909 20.8016C136.808 20.7009 136.727 20.5812 136.673 20.4494C136.618 20.3177 136.59 20.1764 136.591 20.0339L136.652 6.02124C136.651 5.87869 136.679 5.73741 136.733 5.60556C136.788 5.47371 136.868 5.35389 136.969 5.25301C137.07 5.15213 137.191 5.07219 137.323 5.0178C137.455 4.96341 137.597 4.93564 137.741 4.9361H138.911C139.055 4.93564 139.197 4.96346 139.329 5.01796C139.462 5.07246 139.582 5.15256 139.683 5.25362C139.784 5.35469 139.865 5.47471 139.919 5.60677C139.973 5.73882 140.001 5.88028 140 6.02298L139.938 20.0356C139.939 20.1781 139.912 20.3193 139.857 20.4511C139.803 20.5828 139.722 20.7025 139.621 20.8033C139.52 20.904 139.4 20.9838 139.267 21.038C139.135 21.0922 138.993 21.1197 138.85 21.119L137.681 21.1173ZM131.556 19.4922C130.286 20.6766 129.075 21.2984 127.279 21.2984C123.65 21.2775 121.914 18.2869 121.914 14.934L121.935 9.23309C121.934 9.09062 121.962 8.94947 122.017 8.81781C122.071 8.68614 122.152 8.56656 122.253 8.46598C122.354 8.3654 122.475 8.28582 122.607 8.23183C122.74 8.17784 122.882 8.15052 123.025 8.15144H124.196C124.339 8.15075 124.481 8.1783 124.613 8.2325C124.745 8.2867 124.866 8.36647 124.967 8.46721C125.068 8.56795 125.148 8.68766 125.203 8.81942C125.257 8.95117 125.285 9.09236 125.284 9.23483L125.265 14.9357C125.265 16.8029 126.273 18.2677 128.25 18.2677C130.228 18.2677 131.437 16.6217 131.456 14.7842V12.748C131.44 12.6689 131.434 12.5882 131.437 12.5076L131.456 9.27489C131.456 9.13242 131.483 8.99123 131.538 8.85948C131.592 8.72772 131.672 8.60802 131.774 8.50728C131.875 8.40654 131.995 8.32676 132.127 8.27256C132.26 8.21836 132.402 8.19081 132.545 8.1915H133.7C133.843 8.19081 133.985 8.21836 134.117 8.27256C134.25 8.32676 134.37 8.40654 134.471 8.50728C134.572 8.60802 134.652 8.72772 134.707 8.85948C134.761 8.99123 134.789 9.13242 134.788 9.27489L134.75 20.0356C134.747 20.3204 134.631 20.5924 134.427 20.7919C134.223 20.9914 133.947 21.1022 133.661 21.0999H132.673C132.392 21.0911 132.125 20.9762 131.926 20.7785C131.728 20.5808 131.612 20.3151 131.603 20.0356L131.556 19.4922ZM117.631 8.1915H119.891C120.034 8.19353 120.175 8.22378 120.307 8.28049C120.438 8.3372 120.557 8.41926 120.656 8.52192C120.756 8.62459 120.834 8.74583 120.886 8.87865C120.938 9.01148 120.963 9.15325 120.96 9.29579V10.0378C120.958 10.3238 120.843 10.5976 120.64 10.8001C120.437 11.0027 120.162 11.118 119.875 11.1212H117.61L117.57 19.9747C117.571 20.1172 117.543 20.2585 117.489 20.3904C117.434 20.5222 117.354 20.642 117.253 20.7429C117.152 20.8438 117.031 20.9237 116.899 20.9781C116.767 21.0325 116.625 21.0603 116.482 21.0598H115.313C115.169 21.0603 115.027 21.0325 114.895 20.9781C114.762 20.9238 114.642 20.8439 114.541 20.743C114.439 20.6422 114.359 20.5223 114.304 20.3905C114.25 20.2586 114.222 20.1173 114.222 19.9747L114.263 7.72993C114.263 5.05977 115.796 2.95047 118.54 2.7101C118.62 2.7101 118.68 2.69094 118.76 2.69094C118.921 2.68049 119.083 2.68049 119.245 2.69094H120.295C120.438 2.69298 120.579 2.72317 120.71 2.77977C120.842 2.83637 120.961 2.91827 121.06 3.02075C121.159 3.12323 121.237 3.24426 121.29 3.37689C121.342 3.50951 121.367 3.65109 121.364 3.79349V4.47627C121.362 4.7632 121.247 5.03789 121.043 5.24095C120.84 5.44401 120.564 5.55912 120.276 5.5614H119.429C118.137 5.5614 117.593 6.54377 117.572 7.74909L117.631 8.1915ZM109.524 8.15144H112C112.286 8.1542 112.559 8.26984 112.76 8.47297C112.96 8.67609 113.071 8.9501 113.069 9.23483V9.97683C113.066 10.2616 112.95 10.5335 112.746 10.7331C112.542 10.9326 112.267 11.0434 111.981 11.0411H109.503L109.483 16.458C109.483 17.5031 109.987 18.104 111.036 18.104H111.54C111.826 18.1072 112.099 18.2232 112.299 18.4266C112.5 18.6301 112.611 18.9042 112.609 19.1891V19.9416C112.606 20.2262 112.489 20.4979 112.285 20.6973C112.081 20.8968 111.806 21.0077 111.52 21.0058H110.572C110.397 21.0093 110.221 21.0023 110.047 20.9849C107.364 20.8107 106.174 19.0794 106.174 16.4685C106.195 12.9553 106.195 9.463 106.214 5.94982C106.216 5.80869 106.245 5.66921 106.301 5.53935C106.356 5.40948 106.437 5.29178 106.538 5.19295C106.639 5.09413 106.759 5.01612 106.891 4.96338C107.022 4.91065 107.163 4.88421 107.305 4.88559H108.454C108.74 4.88835 109.014 5.00399 109.214 5.20712C109.415 5.41025 109.526 5.68426 109.524 5.96898V8.15144ZM73.6487 8.01036H76.1249C76.411 8.01311 76.6843 8.12875 76.8848 8.33188C77.0852 8.53501 77.1965 8.80902 77.1942 9.09375V9.83923C77.191 10.1238 77.0746 10.3955 76.8706 10.595C76.6667 10.7944 76.3916 10.9053 76.1057 10.9035H73.6207V16.3222C73.6207 17.3672 74.1247 17.9681 75.1729 17.9681H75.6787C75.8203 17.9695 75.9602 17.9986 76.0904 18.0538C76.2207 18.109 76.3388 18.1892 76.4379 18.2898C76.537 18.3904 76.6153 18.5094 76.6682 18.6401C76.7211 18.7708 76.7476 18.9106 76.7462 19.0515V19.7935C76.7434 20.0783 76.6272 20.3502 76.4231 20.5498C76.2191 20.7493 75.9438 20.8601 75.6577 20.8578H74.9122C71.9862 20.8386 70.2922 19.5932 70.2922 16.3291C70.3132 12.8159 70.3132 9.32192 70.3325 5.80874C70.3357 5.52386 70.4523 5.25187 70.6566 5.05238C70.861 4.8529 71.1365 4.74218 71.4227 4.74451H72.5725C72.8585 4.74772 73.1316 4.8638 73.3318 5.06726C73.5319 5.27071 73.6427 5.54491 73.6399 5.82964L73.6487 8.01036ZM59.087 9.53616C60.277 8.43187 61.5685 7.72993 63.2415 7.72993C66.8727 7.74909 68.7487 10.691 68.7277 14.0927L68.7085 19.7935C68.7089 19.9362 68.681 20.0775 68.6264 20.2093C68.5718 20.3412 68.4915 20.461 68.3902 20.5619C68.2888 20.6627 68.1685 20.7426 68.036 20.797C67.9035 20.8514 67.7615 20.8791 67.6182 20.8787H66.4492C66.3059 20.8791 66.1639 20.8514 66.0315 20.797C65.899 20.7426 65.7786 20.6627 65.6773 20.5619C65.5759 20.461 65.4957 20.3412 65.441 20.2093C65.3864 20.0775 65.3585 19.9362 65.359 19.7935L65.38 14.1327C65.38 12.2655 64.372 10.8007 62.3945 10.8007C60.417 10.8007 59.2077 12.4275 59.1885 14.2738L59.1675 19.7935C59.1647 20.0783 59.0485 20.3502 58.8445 20.5498C58.6404 20.7493 58.3651 20.8601 58.079 20.8578H56.9293C56.6432 20.855 56.3699 20.7394 56.1694 20.5362C55.969 20.3331 55.8577 20.0591 55.86 19.7744C55.8793 16.3413 55.8793 12.8891 55.9003 9.45604V8.99446C55.9012 8.71004 56.0154 8.43759 56.2177 8.2368C56.4201 8.03601 56.6942 7.92326 56.98 7.92327H57.9688C58.2497 7.93158 58.5168 8.04637 58.7156 8.24418C58.9143 8.44199 59.0296 8.70788 59.038 8.9875L59.087 9.53616ZM95.0301 9.6755C96.2201 8.57295 97.5099 7.86927 99.1846 7.86927C102.816 7.89017 104.69 10.8408 104.671 14.2338L104.65 19.9416C104.651 20.0841 104.623 20.2254 104.568 20.3573C104.514 20.4891 104.434 20.6089 104.333 20.7098C104.232 20.8107 104.111 20.8906 103.979 20.945C103.846 20.9994 103.705 21.0272 103.561 21.0267H102.392C102.249 21.0272 102.107 20.9994 101.975 20.9451C101.842 20.8907 101.722 20.8108 101.62 20.7099C101.519 20.6091 101.439 20.4893 101.384 20.3574C101.33 20.2255 101.302 20.0842 101.302 19.9416L101.323 14.2808C101.323 12.4136 100.313 10.9487 98.3376 10.9487C96.3619 10.9487 95.1509 12.5738 95.1299 14.4219L95.1019 19.9416C95.0986 20.2265 94.9821 20.4985 94.7777 20.6979C94.5733 20.8974 94.2979 21.0081 94.0116 21.0058H92.8619C92.5761 21.0026 92.3033 20.8868 92.1032 20.6837C91.9031 20.4806 91.7921 20.2069 91.7944 19.9224L91.8346 9.14077C91.8351 8.99905 91.8637 8.85882 91.9188 8.72815C91.974 8.59749 92.0545 8.47896 92.1558 8.3794C92.2572 8.27984 92.3773 8.20121 92.5093 8.14803C92.6413 8.09486 92.7825 8.0682 92.9249 8.06958H93.9136C94.1956 8.07885 94.4633 8.19518 94.6618 8.3947C94.8603 8.59422 94.9746 8.8618 94.9811 9.14252L95.0301 9.6755ZM48.1058 7.6289C44.1718 7.608 41.3893 10.4384 41.3683 14.333C41.3491 18.2677 44.0913 21.0598 48.0655 21.079C52.0398 21.0981 54.8223 18.3287 54.8415 14.3679C54.8625 10.4994 52.0188 7.64806 48.1058 7.6289ZM80.7607 15.6794C81.0424 17.4857 82.7784 18.2277 84.4724 18.2486C85.3216 18.2412 86.1598 18.0566 86.9329 17.7069C87.0572 17.6565 87.1782 17.5983 87.2952 17.5327C87.6994 17.3115 88.0617 17.1721 88.4257 17.5327C88.6269 17.733 88.8089 17.9351 89.0102 18.1145C89.2002 18.295 89.3758 18.4901 89.5351 18.698C90.0794 19.379 89.6962 19.541 89.0714 19.9625C87.7397 20.8456 86.0054 21.2862 84.4112 21.2862C80.1359 21.2671 77.3114 18.6736 77.3114 14.3818C77.3324 10.3252 80.1552 7.63587 84.2292 7.65503C88.3854 7.67593 90.7444 10.1057 90.8056 14.2407C90.8249 15.3642 90.8651 15.7265 89.6961 15.7265L80.7607 15.6794ZM48.1058 10.6596C50.1428 10.6596 51.4938 12.4275 51.4938 14.3748C51.4938 16.4023 50.2233 18.0326 48.0848 18.0326C45.9463 18.0326 44.6968 16.3866 44.6968 14.3592C44.6968 12.3317 45.9883 10.6596 48.1058 10.6596ZM80.8499 12.8891L87.5472 12.9083C87.3039 11.2414 85.9127 10.5795 84.3202 10.5795C82.7277 10.5795 81.3452 11.3232 80.8499 12.8891Z" fill="#29303A"/>
</svg>
