<svg width="512" height="149" viewBox="0 0 512 149" fill="none" xmlns="http://www.w3.org/2000/svg">
    <g clip-path="url(#clip0_23_111)">
        <path d="M0.0600586 27.679H17.9121V67.341H55.5631V27.679H73.4381V125.037H55.5631V84.542H17.9121V125.037H0.0600586V27.679Z" fill="#45535E"/>
        <path d="M129.993 93.3259C129.993 101.476 123.353 108.108 115.205 108.108C107.054 108.108 100.418 101.476 100.418 93.3259V51.4099H83.4883V93.3259C83.4883 110.813 97.7173 125.037 115.205 125.037C132.689 125.037 146.917 110.813 146.917 93.3259V51.4099H129.993V93.3259Z" fill="#45535E"/>
        <path d="M194.179 51.901C185.781 51.901 179.919 54.338 174.258 59.895V27.679H157.273V87.384C157.273 109.732 173.431 125.037 191.584 125.037C211.765 125.037 229.447 109.459 229.447 88.47C229.447 67.747 213.142 51.901 194.179 51.901ZM194.601 109.324C183.092 109.324 174.291 99.712 174.291 88.47C174.291 77.226 183.092 67.611 194.601 67.611C204.353 67.611 213.159 77.226 213.159 88.47C213.159 99.712 204.353 109.324 194.601 109.324Z" fill="#45535E"/>
        <path d="M257.974 56.18C257.974 47.642 263.663 44.935 269.891 44.935C274.905 44.935 281.54 48.727 285.87 53.333L296.973 40.332C291.424 32.884 280.185 27.736 270.975 27.736C252.554 27.736 239.281 38.436 239.281 56.18C239.281 89.09 279.778 78.658 279.778 97.082C279.778 102.764 274.227 107.78 267.865 107.78C257.839 107.78 254.587 102.904 249.984 97.756L237.657 110.485C245.517 120.102 255.265 124.98 266.914 124.98C284.384 124.98 298.47 114.145 298.47 97.213C298.47 60.647 257.974 72.025 257.974 56.18Z" fill="#45535E"/>
        <path d="M343.184 50.9469C325.033 50.9469 308.873 66.2429 308.873 88.5959V148.455H325.857V116.086C331.519 121.639 337.378 124.08 345.779 124.08C364.741 124.08 381.048 108.236 381.048 87.5129C381.048 66.5209 363.361 50.9469 343.184 50.9469ZM346.202 108.372C334.694 108.372 325.892 98.7469 325.892 87.5129C325.892 76.2689 334.694 66.6539 346.202 66.6539C355.952 66.6539 364.759 76.2689 364.759 87.5129C364.759 98.7469 355.952 108.372 346.202 108.372Z" fill="#45535E"/>
        <path d="M506.069 109.324C496.051 109.324 493.207 104.992 493.207 98.353V68.965H508.779V54.069H493.207V34.429L476.012 42.147V102.01C476.012 117.316 486.572 125.037 501.057 125.037C503.224 125.037 506.207 124.897 507.834 124.496L512.033 109.058C510.137 109.189 507.971 109.324 506.069 109.324Z" fill="#45535E"/>
        <path d="M461.278 69.831C458.022 64.229 453.442 59.738 447.716 56.357C443.437 53.866 439 52.285 434 51.606V33.806C439 31.683 442.103 26.984 442.103 21.502C442.103 14.03 436.111 7.97495 428.645 7.97495C421.173 7.97495 415.076 14.03 415.076 21.502C415.076 26.984 418 31.683 423 33.806V51.614C419 52.192 414.852 53.439 411.064 55.355C403.327 49.479 377.957 30.202 363.116 18.943C363.468 17.674 363.739 16.366 363.739 14.986C363.739 6.70995 357.037 0.00195312 348.758 0.00195312C340.479 0.00195312 333.78 6.70995 333.78 14.986C333.78 23.261 340.486 29.971 348.765 29.971C351.589 29.971 354.201 29.145 356.455 27.787L359.587 30.163L402.623 61.171C400.348 63.26 398.229 65.636 396.534 68.302C393.099 73.737 391 79.717 391 86.24V87.601C391 92.18 391.87 96.503 393.352 100.564C394.657 104.11 396.565 107.334 398.928 110.249L384.645 124.567C383.378 124.1 382.047 123.844 380.658 123.844C377.566 123.844 374.666 125.052 372.479 127.235C370.29 129.424 369.091 132.331 369.091 135.425C369.092 138.518 370.297 141.425 372.485 143.612C374.672 145.8 377.579 147.006 380.673 147.006C383.767 147.006 386.675 145.8 388.864 143.612C391.048 141.425 392.254 138.517 392.254 135.425C392.254 134.228 392.069 133.06 391.721 131.95L406.484 117.185C408.508 118.583 410.694 119.76 413.044 120.775C417.679 122.779 422.795 124 428.394 124H429.42C435.61 124 441.449 122.546 446.938 119.572C452.722 116.429 457.249 112.131 460.669 106.644C464.107 101.142 466 95.063 466 88.375V88.041C466 81.462 464.477 75.392 461.278 69.831ZM443.24 100.804C439.233 105.257 434.627 108 429.42 108H428.562C425.588 108 422.679 107.178 419.831 105.683C416.621 104.037 414.181 101.689 412.184 98.716C410.12 95.798 409 92.612 409 89.234V88.208C409 84.887 409.637 81.738 411.243 78.764C412.96 75.513 415.279 72.985 418.363 70.975C421.391 68.979 424.625 68 428.227 68H428.562C431.828 68 434.92 68.644 437.838 70.137C440.811 71.729 443.24 73.904 445.123 76.765C446.952 79.627 448.04 82.714 448.39 86.077C448.445 86.776 448.473 87.492 448.473 88.176C448.473 92.74 446.729 96.967 443.24 100.804Z" fill="#F8761F"/>
    </g>
    <defs>
        <clipPath id="clip0_23_111">
            <rect width="512" height="149" fill="white"/>
        </clipPath>
    </defs>
</svg>
