<svg width="730" height="151" viewBox="0 0 730 151" fill="none" xmlns="http://www.w3.org/2000/svg">
    <g clip-path="url(#clip0_20_18)">
        <path d="M21.9021 37.3017L43.5057 0.0132916L130.506 0.00195312L151.992 37.6608L152.019 112.993L130.509 150.63L43.5359 150.66L21.6829 112.997L21.9021 37.3017Z" fill="#4D4D4D"/>
        <path d="M21.6867 112.986H60.8951L39.3596 75.0361L56.8737 37.3093L21.9059 37.3017L0 75.3422" fill="#EDEDED"/>
        <path d="M72.7853 112.986H101.445L126.787 76.049L101.887 37.6645H68.1744L47.8672 74.7564L72.7853 112.986Z" fill="#E0E0E0"/>
        <path d="M0 75.3384L21.6867 112.997H60.8989L39.5977 75.4669L0 75.3384Z" fill="#ACACAC"/>
        <path d="M48.2792 75.346L72.7891 112.997H101.445L126.39 75.3611L48.2792 75.346Z" fill="#9E9E9E"/>
        <path d="M57.9849 75.3649L50.5884 77.5192L43.4905 75.3611L72.4679 25.1317L79.7169 37.6721" fill="#00B8E3"/>
        <path d="M79.6867 112.986L72.4755 125.579L53.2265 104.841L43.4755 75.3725V75.3574H57.9811" fill="#33C6E9"/>
        <path d="M43.4943 75.3611H43.4792V75.3725L36.2339 87.9279L28.9584 75.4292L36.336 62.6318L57.9849 25.1393H72.4754" fill="#008AAA"/>
        <path d="M123.226 112.986H167.114L167.087 37.6607H123.226V112.986Z" fill="#D4D4D4"/>
        <path d="M123.226 75.4632V112.993H167.034V75.4632H123.226Z" fill="#919191"/>
        <path d="M72.483 125.594H57.9811L36.2339 87.9241L43.4792 75.3763L72.483 125.594Z" fill="#00B8E3"/>
        <path d="M130.464 75.3611L101.479 125.583C98.8147 121.667 94.2491 112.997 94.2491 112.997L115.992 75.3536L130.464 75.3611Z" fill="#008AAA"/>
        <path d="M115.955 125.583L101.479 125.579L130.468 75.3574L137.709 62.817L144.974 75.4405M130.464 75.3611H115.996L94.2453 37.6683L101.445 25.1431L119.05 47.5252L130.464 75.3611Z" fill="#00B8E3"/>
        <path d="M137.709 62.8094V62.8208L130.464 75.3611L101.449 25.1469L115.966 25.1544L137.709 62.8094Z" fill="#33C6E9"/>
        <path d="M665.084 37.7212C664.986 37.7202 664.89 37.7387 664.8 37.7756C664.71 37.8125 664.628 37.8671 664.559 37.9362C664.49 38.0052 664.436 38.0873 664.4 38.1776C664.363 38.2679 664.345 38.3646 664.347 38.462V112.173C664.347 112.574 664.672 112.91 665.084 112.91H680.387C680.788 112.91 681.124 112.57 681.124 112.173V91.8813C681.124 91.7074 681.184 91.5298 681.313 91.3899L681.997 90.6189L688.044 83.8839C688.118 83.8034 688.209 83.7403 688.31 83.699C688.411 83.6577 688.52 83.6393 688.629 83.645C688.738 83.6508 688.845 83.6806 688.941 83.7324C689.037 83.7841 689.121 83.8565 689.186 83.9444L694.961 91.7301L705.298 105.639L709.085 110.73L710.472 112.608C710.623 112.797 710.834 112.91 711.073 112.91H728.836C728.972 112.908 729.105 112.869 729.221 112.797C729.336 112.725 729.43 112.624 729.493 112.503C729.556 112.382 729.585 112.247 729.577 112.111C729.569 111.975 729.525 111.844 729.448 111.731L725.771 106.606L720.521 99.221C718.96 97.0441 717.286 94.6932 715.483 92.1685L714.671 91.0196L708.019 81.6464C705.586 78.2347 703.149 74.8256 700.709 71.4191C700.612 71.2838 700.565 71.119 700.576 70.9529C700.587 70.7867 700.656 70.6295 700.77 70.5083L706.632 63.9924L720.71 48.3454L729.173 38.9458C729.282 38.8142 729.348 38.6517 729.362 38.4809C729.365 38.3819 729.348 38.2833 729.312 38.191C729.276 38.0987 729.222 38.0146 729.153 37.9437C729.083 37.8728 729.001 37.8165 728.909 37.7783C728.818 37.7401 728.72 37.7207 728.621 37.7212H709.837C709.735 37.721 709.635 37.7417 709.542 37.7821C709.449 37.8224 709.365 37.8814 709.296 37.9556L703.408 44.358L690.845 58.0171L682.398 67.1937C682.298 67.3042 682.167 67.3817 682.022 67.4159C681.877 67.4502 681.725 67.4395 681.587 67.3854C681.448 67.3312 681.329 67.2361 681.246 67.1128C681.162 66.9894 681.119 66.8436 681.12 66.6948V38.4582C681.12 38.2628 681.042 38.0753 680.904 37.9371C680.766 37.7989 680.579 37.7212 680.383 37.7212H665.084Z" fill="#626262"/>
        <path d="M610.621 37.7212C610.477 37.7241 610.337 37.7685 610.218 37.8489C610.099 37.9293 610.005 38.0425 609.949 38.1748L590.246 83.7743L590.235 83.7856L590.208 83.8347L590.197 83.8725L587.65 89.7874L587.498 90.1503L587.17 90.8873H587.173L586.898 91.5147V91.526L579.236 109.263L578.11 111.871C578.061 111.983 578.04 112.106 578.05 112.229C578.06 112.351 578.1 112.469 578.166 112.572C578.233 112.675 578.324 112.76 578.432 112.819C578.54 112.878 578.66 112.909 578.783 112.91H595.035C595.174 112.909 595.309 112.868 595.426 112.794C595.543 112.719 595.637 112.612 595.696 112.487C595.696 112.472 595.711 112.472 595.711 112.461L601.373 99.2891L602.31 97.1121C602.368 96.9778 602.464 96.8633 602.587 96.7827C602.709 96.7022 602.852 96.659 602.998 96.6585H633.536C633.681 96.6575 633.823 96.7003 633.943 96.7812C634.063 96.8621 634.156 96.9775 634.209 97.1121L640.498 111.724L647.547 86.7109L641.881 73.5961L636.821 61.8873L626.571 38.1785C626.517 38.0436 626.423 37.9282 626.303 37.8472C626.182 37.7663 626.04 37.7237 625.894 37.725H616.347L610.621 37.7212ZM640.498 111.724V111.735L640.823 112.461C640.937 112.736 641.197 112.914 641.496 112.914H657.748C657.871 112.913 657.992 112.882 658.1 112.822C658.208 112.763 658.3 112.678 658.367 112.575C658.434 112.471 658.474 112.353 658.484 112.23C658.494 112.107 658.474 111.984 658.424 111.871L658.273 111.531L647.547 86.7109L640.498 111.724ZM618.313 61.2221C618.592 61.2221 618.868 61.3733 618.997 61.6643L622.561 69.9791L626.159 78.3885L627.236 80.8981C627.285 81.0101 627.306 81.1326 627.295 81.2545C627.285 81.3764 627.244 81.4938 627.177 81.596C627.11 81.6981 627.018 81.7819 626.91 81.8396C626.802 81.8972 626.682 81.927 626.559 81.9261H609.971C609.849 81.9263 609.729 81.8961 609.622 81.8382C609.514 81.7803 609.423 81.6965 609.356 81.5944C609.29 81.4923 609.249 81.3751 609.239 81.2536C609.229 81.132 609.249 81.0098 609.299 80.8981L611.249 76.4005L617.636 61.6605C617.694 61.529 617.79 61.4174 617.911 61.3395C618.032 61.2616 618.173 61.2208 618.316 61.2221H618.313Z" fill="#6F6F6F"/>
        <path d="M542.175 35.9978C539.053 35.9978 536.063 36.285 533.225 36.886H533.214C528.405 37.8504 523.836 39.7621 519.774 42.5098C517.751 43.8761 515.857 45.4246 514.116 47.1359C508.5 52.6275 504.939 59.2189 503.477 66.6985L503.469 66.7099L503.416 66.9971L503.397 67.0841L503.239 67.9344V67.9307L503.227 67.976V67.9987L503.189 68.3199V68.354C502.866 70.4993 502.707 72.6662 502.713 74.8358C502.713 84.7758 505.797 93.2494 511.973 100.26C512.634 101.039 513.36 101.787 514.108 102.524C516.021 104.399 518.05 106.039 520.186 107.438C526.535 111.588 533.864 113.662 542.175 113.662C543.101 113.662 544.012 113.64 544.911 113.576C552.962 113.122 560.033 110.612 566.133 106.051C567.584 104.971 568.959 103.793 570.249 102.524L570.287 102.486C573.22 99.6468 575.674 96.3498 577.551 92.7241C578.11 91.6356 578.609 90.5244 579.048 89.3717C580.786 84.9346 581.648 80.0855 581.648 74.8396C581.648 73.426 581.587 72.0352 581.459 70.6821V70.6594C581.118 66.6188 580.118 62.6611 578.5 58.943C576.61 54.5966 573.862 50.6622 570.249 47.1359C568.749 45.6619 567.172 44.3391 565.525 43.1599C558.873 38.3864 551.098 35.9978 542.175 35.9978ZM542.239 50.6357C548.513 50.6357 553.801 52.9979 558.102 57.7223C558.336 57.9755 558.563 58.2363 558.763 58.4971C562.626 63.0854 564.549 68.5505 564.549 74.8849C564.549 79.3069 563.612 83.2867 561.738 86.8356C560.603 88.9855 559.153 90.9536 557.437 92.675C555.909 94.2559 554.148 95.5918 552.213 96.6359C549.227 98.2346 545.902 99.0358 542.235 99.0358C538.878 99.0723 535.561 98.3051 532.56 96.7984C531.033 96.0084 529.611 95.0308 528.327 93.8882C527.637 93.2965 526.986 92.6615 526.377 91.9871C522.068 87.2892 519.914 81.5897 519.914 74.8887C519.914 74.6884 519.914 74.4994 519.925 74.2991C520.038 67.8475 522.189 62.3257 526.377 57.7223C529.514 54.2754 533.187 52.0719 537.386 51.146C538.981 50.8027 540.608 50.6316 542.239 50.6357Z" fill="#7D7D7D"/>
        <path d="M454.491 37.7212C454.393 37.7202 454.297 37.7387 454.207 37.7756C454.117 37.8125 454.035 37.8671 453.966 37.9361C453.897 38.0052 453.843 38.0873 453.807 38.1776C453.77 38.2679 453.752 38.3646 453.754 38.462V112.173C453.754 112.574 454.079 112.91 454.491 112.91H501.84C502.256 112.91 502.581 112.57 502.581 112.173V98.6805C502.581 98.5838 502.561 98.488 502.524 98.3988C502.486 98.3096 502.431 98.2286 502.363 98.1605C502.294 98.0924 502.212 98.0386 502.123 98.002C502.033 97.9654 501.937 97.9468 501.84 97.9473H471.264C471.169 97.9483 471.074 97.9304 470.985 97.8946C470.896 97.8588 470.816 97.8059 470.748 97.7388C470.679 97.6717 470.625 97.5918 470.588 97.5037C470.551 97.4156 470.532 97.3211 470.531 97.2254V38.462C470.533 38.3215 470.493 38.1836 470.417 38.0653C470.341 37.9471 470.232 37.8537 470.104 37.7968C470.007 37.7459 469.899 37.72 469.79 37.7212H461.317H454.491Z" fill="#888888"/>
        <path d="M414.957 36.0015C403.91 36.0015 394.571 39.7395 386.932 47.1888C385.545 48.5494 384.287 49.9781 383.145 51.4597V51.4748C378.036 58.1115 375.484 65.988 375.484 75.0966C375.484 80.3009 376.297 85.0744 377.937 89.4359L377.96 89.4284L377.941 89.4397C378.901 92.0665 380.179 94.4891 381.717 96.8022V96.8135C381.728 96.8135 381.728 96.8248 381.728 96.8248C383.181 98.9851 384.857 100.987 386.728 102.796C388.98 105.006 391.499 106.926 394.227 108.511H394.238C395.405 109.186 396.607 109.796 397.84 110.34H397.866L397.878 110.352H397.889C403.067 112.627 408.876 113.764 415.339 113.764C417.24 113.764 419.103 113.625 420.914 113.364H420.952C422.116 113.201 423.265 112.978 424.402 112.702C430.763 111.176 436.591 107.952 441.901 103.038C442.963 102.063 444.018 100.997 445.042 99.8749C445.167 99.7326 445.233 99.5486 445.228 99.3595C445.224 99.1703 445.148 98.99 445.016 98.8544L435.317 88.8652C435.236 88.778 435.133 88.7127 435.02 88.675C434.906 88.6374 434.785 88.6287 434.667 88.6498C434.496 88.6877 434.342 88.7806 434.229 88.9144C431.64 91.9757 428.692 94.2775 425.393 95.8006C422.116 97.3124 418.491 98.0683 414.53 98.0683C411.817 98.0683 409.277 97.6412 406.93 96.7795C403.998 95.6825 401.344 93.9534 399.155 91.715C396.946 89.5185 395.266 86.8483 394.242 83.9065H394.216L394.242 83.9028C393.278 81.2004 392.806 78.2033 392.806 74.8887C392.806 68.3766 394.741 63.1042 398.641 59.0791C398.929 58.7919 399.216 58.5008 399.529 58.2098C404.004 54.0902 409.401 52.0266 415.717 52.0266C418.026 52.0266 420.241 52.3138 422.331 52.8921V52.8883C427.131 54.1884 431.341 56.989 434.966 61.2636C435.253 61.6038 435.779 61.6265 436.062 61.2901L445.503 50.5866C445.622 50.4469 445.686 50.269 445.684 50.0856C445.682 49.9022 445.614 49.7257 445.492 49.5888C438.103 41.4742 429.153 36.988 418.657 36.149C417.44 36.0545 416.216 35.9978 414.965 35.9978L414.957 36.0015Z" fill="#949494"/>
        <path d="M312.14 37.7212C312.012 37.7214 311.886 37.7551 311.774 37.819C311.663 37.8829 311.57 37.9748 311.505 38.0855C311.441 38.1962 311.406 38.322 311.404 38.4504C311.403 38.5787 311.435 38.7052 311.498 38.8173L318.648 51.3236L331.586 73.9363L336.801 83.0448C336.865 83.1567 336.899 83.2829 336.9 83.4114V112.173C336.9 112.574 337.225 112.91 337.637 112.91H352.94C353.352 112.91 353.673 112.57 353.673 112.173V83.4114C353.673 83.2867 353.711 83.162 353.775 83.0486L357.464 76.6008L371.463 52.1248L374.324 47.1359L376.225 43.81H376.199L376.225 43.7986L379.075 38.8248C379.138 38.7135 379.171 38.5874 379.171 38.4593C379.17 38.3311 379.136 38.2053 379.072 38.0945C379.008 37.9836 378.916 37.8915 378.805 37.8273C378.694 37.7631 378.568 37.7292 378.44 37.7288H361.95C361.822 37.7288 361.697 37.7618 361.585 37.8247C361.474 37.8877 361.381 37.9783 361.315 38.0878L346.375 63.7997L346.363 63.811V63.8224L345.562 64.412L344.961 64.8731C344.833 64.8082 344.726 64.7087 344.651 64.5858L344.398 64.1625L344.024 63.52L329.265 38.0841C329.199 37.974 329.105 37.883 328.993 37.82C328.881 37.7571 328.755 37.7243 328.626 37.725L312.14 37.7212ZM370.862 45.4314V45.4389L370.847 45.4465L370.862 45.4314Z" fill="#AAAAAA"/>
        <path d="M251.706 37.7212C251.608 37.7197 251.511 37.7378 251.421 37.7745C251.33 37.8112 251.248 37.8657 251.179 37.9348C251.11 38.0039 251.055 38.0861 251.019 38.1767C250.982 38.2673 250.964 38.3643 250.965 38.462V112.173C250.965 112.574 251.29 112.91 251.702 112.91H305.613C306.029 112.91 306.354 112.57 306.354 112.173V98.7939C306.352 98.5988 306.273 98.4123 306.134 98.275C305.995 98.1377 305.808 98.0607 305.613 98.0607H268.48C268.382 98.0612 268.286 98.0425 268.196 98.0057C268.107 97.9689 268.025 97.9147 267.956 97.8462C267.887 97.7777 267.833 97.6963 267.795 97.6066C267.758 97.517 267.739 97.4208 267.739 97.3237V83.1998C267.739 82.7992 268.079 82.459 268.48 82.459H300.677C300.872 82.459 301.059 82.3819 301.197 82.2445C301.335 82.1071 301.413 81.9206 301.414 81.7258V68.8982C301.414 68.4825 301.074 68.1612 300.677 68.1612H268.476C268.281 68.1602 268.094 68.0822 267.956 67.9442C267.818 67.8062 267.74 67.6194 267.739 67.4242V53.4061C267.739 52.9903 268.079 52.6691 268.48 52.6691H304.441C304.637 52.6691 304.824 52.5914 304.963 52.4532C305.101 52.315 305.178 52.1276 305.178 51.9321V38.4582C305.178 38.2628 305.101 38.0753 304.963 37.9371C304.824 37.7989 304.637 37.7212 304.441 37.7212H274.852H251.706Z" fill="#BCBCBC"/>
        <path d="M178.603 37.7212C178.506 37.7202 178.409 37.7387 178.319 37.7756C178.229 37.8125 178.147 37.8671 178.079 37.9362C178.01 38.0052 177.956 38.0873 177.919 38.1776C177.883 38.2679 177.865 38.3646 177.866 38.462V112.173C177.866 112.574 178.191 112.91 178.603 112.91H193.903C194.319 112.91 194.644 112.57 194.644 112.173V91.8813C194.644 91.7074 194.704 91.5298 194.833 91.3899L198.015 87.8297L201.568 83.8839C201.641 83.8047 201.732 83.7428 201.832 83.7023C201.932 83.6618 202.041 83.6438 202.149 83.6496C202.257 83.6553 202.362 83.6847 202.458 83.7356C202.553 83.7866 202.636 83.8578 202.701 83.9443L213.314 98.2195L213.322 98.227L220.941 108.481L224.003 112.6C224.069 112.694 224.158 112.771 224.26 112.824C224.363 112.876 224.477 112.903 224.592 112.903H242.367C242.502 112.9 242.634 112.861 242.749 112.79C242.863 112.718 242.956 112.617 243.018 112.496C243.079 112.376 243.107 112.241 243.097 112.106C243.088 111.972 243.042 111.842 242.964 111.731L242.318 110.82C239.985 107.566 237.659 104.307 235.341 101.043C233.202 98.0569 230.828 94.7197 228.205 91.0195L227.941 90.6416C223.383 84.225 218.812 77.8175 214.229 71.4191C214.136 71.2822 214.091 71.1178 214.103 70.9526C214.115 70.7873 214.182 70.6308 214.293 70.5083L220.99 63.0702V63.0551L226.505 56.9324L231.803 51.0439L242.688 38.942C242.784 38.8365 242.846 38.7056 242.868 38.5651C242.891 38.4247 242.871 38.2809 242.813 38.1511C242.755 38.0214 242.661 37.9113 242.541 37.8343C242.422 37.7573 242.283 37.7167 242.14 37.7174H223.368C223.264 37.7164 223.162 37.737 223.067 37.778C222.971 37.819 222.886 37.8795 222.816 37.9555L211.179 50.5979L195.917 67.1899C195.818 67.3004 195.686 67.3779 195.542 67.4122C195.397 67.4464 195.245 67.4357 195.106 67.3816C194.968 67.3274 194.849 67.2323 194.765 67.109C194.682 66.9856 194.638 66.8398 194.64 66.691V38.4393C194.639 38.3432 194.62 38.2481 194.582 38.1596C194.545 38.071 194.491 37.9907 194.422 37.9233C194.354 37.8559 194.273 37.8026 194.183 37.7666C194.094 37.7307 193.999 37.7127 193.903 37.7137H185.928L178.603 37.7212Z" fill="#B8B8B8"/>
        <path d="M337.213 112.653C337.123 112.559 337.043 105.888 337.043 97.8377V83.1884L324.269 60.8744C316.725 47.6953 311.554 38.4053 311.638 38.1861C311.759 37.8686 312.987 37.8157 320.247 37.8157C328.003 37.8157 328.751 37.8535 329.099 38.2503C329.307 38.4922 332.825 44.4827 336.919 51.5655C341.008 58.6445 344.489 64.5782 344.648 64.7483C345.381 65.542 346.386 64.0642 354.021 50.9078L361.618 37.8119H370.216C377.374 37.8119 378.833 37.8724 378.946 38.1672C379.022 38.3562 373.364 48.5116 366.376 60.7269L353.669 82.9352L353.42 112.687L345.404 112.755C340.993 112.793 337.308 112.748 337.213 112.653Z" fill="#A0A0A0"/>
        <path d="M251.17 112.506C251.105 112.336 251.083 95.4869 251.117 75.0701L251.181 37.9442H304.925V52.4461L286.576 52.5104C273.525 52.5557 268.132 52.654 267.89 52.8505C267.399 53.2625 267.399 67.6283 267.89 68.0365C268.128 68.233 273.038 68.3351 284.701 68.3766L301.18 68.4447V82.1944L284.701 82.2587C273.038 82.3041 268.128 82.4061 267.89 82.5989C267.625 82.8256 267.554 84.3563 267.554 90.0822C267.554 94.0394 267.622 97.4522 267.705 97.6752C267.841 98.0305 269.738 98.0683 286.599 98.0683C299.033 98.0683 305.496 98.1552 305.821 98.3291C306.282 98.5747 306.305 98.9187 306.305 105.404C306.305 110.371 306.222 112.302 306.002 112.521C305.556 112.967 251.34 112.952 251.17 112.506Z" fill="#ACACAC"/>
    </g>
    <defs>
        <clipPath id="clip0_20_18">
            <rect width="729.577" height="150.658" fill="white"/>
        </clipPath>
    </defs>
</svg>
