<svg width="443" height="120" viewBox="0 0 443 120" fill="none" xmlns="http://www.w3.org/2000/svg">
    <path fill-rule="evenodd" clip-rule="evenodd" d="M204 48C192.817 48 183.42 40.351 180.756 30H153.248C147.382 30 142.376 34.241 141.412 40.027L140.425 45.946C139.489 51.565 136.646 56.455 132.626 60C136.646 63.545 139.489 68.435 140.425 74.054L141.412 79.973C142.376 85.759 147.382 90 153.248 90H156.756C159.42 79.649 168.817 72 180 72C193.255 72 204 82.745 204 96C204 109.255 193.255 120 180 120C168.817 120 159.42 112.351 156.756 102H153.248C141.516 102 131.504 93.518 129.575 81.946L128.588 76.027C127.624 70.241 122.618 66 116.752 66H107.244C104.58 76.351 95.183 84 84 84C72.817 84 63.42 76.351 60.756 66H47.244C44.58 76.351 35.183 84 24 84C10.7452 84 0 73.255 0 60C0 46.745 10.7452 36 24 36C35.183 36 44.58 43.649 47.244 54H60.756C63.42 43.649 72.817 36 84 36C95.183 36 104.58 43.649 107.244 54H116.752C122.618 54 127.624 49.759 128.588 43.973L129.575 38.054C131.504 26.482 141.516 18 153.248 18H180.756C183.42 7.649 192.817 0 204 0C217.255 0 228 10.745 228 24C228 37.255 217.255 48 204 48ZM204 36C210.627 36 216 30.627 216 24C216 17.373 210.627 12 204 12C197.373 12 192 17.373 192 24C192 30.627 197.373 36 204 36ZM24 72C30.627 72 36 66.627 36 60C36 53.373 30.627 48 24 48C17.3726 48 12 53.373 12 60C12 66.627 17.3726 72 24 72ZM96 60C96 66.627 90.627 72 84 72C77.373 72 72 66.627 72 60C72 53.373 77.373 48 84 48C90.627 48 96 53.373 96 60ZM192 96C192 102.627 186.627 108 180 108C173.373 108 168 102.627 168 96C168 89.373 173.373 84 180 84C186.627 84 192 89.373 192 96Z" fill="#EA4B71"/>
    <path fill-rule="evenodd" clip-rule="evenodd" d="M372.017 51.887V51.316C376.204 49.219 380.391 45.597 380.391 38.449C380.391 28.155 371.922 21.96 360.218 21.96C348.228 21.96 339.664 28.536 339.664 38.639C339.664 45.502 343.66 49.219 348.038 51.316V51.887C343.185 53.603 337.38 58.75 337.38 67.328C337.38 77.716 345.944 84.96 360.123 84.96C374.301 84.96 382.58 77.716 382.58 67.328C382.58 58.75 376.87 53.698 372.017 51.887ZM360.123 30.729C364.881 30.729 368.401 33.778 368.401 38.925C368.401 44.072 364.785 47.122 360.123 47.122C355.46 47.122 351.558 44.072 351.558 38.925C351.558 33.683 355.27 30.729 360.123 30.729ZM360.123 75.81C354.603 75.81 350.131 72.284 350.131 66.279C350.131 60.847 353.842 56.748 360.027 56.748C366.118 56.748 369.829 60.751 369.829 66.47C369.829 72.284 365.547 75.81 360.123 75.81Z" fill="#101330"/>
    <path d="M397.26 84.007H409.44V58.178C409.44 49.695 414.579 45.978 420.383 45.978C426.093 45.978 430.565 49.791 430.565 57.606V84.007H442.745V55.128C442.745 42.642 435.513 35.399 424.19 35.399C417.053 35.399 413.056 38.258 410.201 41.975H409.44L408.393 36.352H397.26V84.007Z" fill="#101330"/>
    <path d="M289.44 84.007H277.26V36.352H288.393L289.44 41.975H290.201C293.056 38.258 297.053 35.399 304.19 35.399C315.513 35.399 322.745 42.642 322.745 55.128V84.007H310.565V57.606C310.565 49.791 306.093 45.978 300.383 45.978C294.579 45.978 289.44 49.695 289.44 58.178V84.007Z" fill="#101330"/>
</svg>
