<svg width="848" height="212" viewBox="0 0 848 212" fill="none" xmlns="http://www.w3.org/2000/svg">
    <g clip-path="url(#clip0_25_169)">
        <path d="M285.875 159.851H266.969V71.6846H291.635L320.635 122.351V71.6846H339.469V159.851H319.469L285.875 99.8096" fill="black"/>
        <path d="M413.693 71.7002H356.026V159.851H413.693V142.903H376.469V121.461L410.886 121.45V103.794H376.584V89.0179H413.693" fill="black"/>
        <path d="M425.636 71.7002H495.427V89.0179H470.802V159.851H450.407L450.417 89.0387C450.417 89.0387 428.802 89.0179 425.636 89.0179" fill="black"/>
        <path d="M450.417 89.0387C450.417 89.0387 426.615 89.0127 425.636 89.0127Z" fill="black"/>
        <path d="M508.151 139.773C513.078 142.695 521.021 150.19 534.5 151.596C550.63 153.283 557.417 144.586 558.203 137.138C559.365 126.112 549.76 123.752 535.531 120.945C519.797 117.846 509.688 114.903 508.219 95.9761C507.115 81.773 519.12 69.023 542.474 69.997C551.417 70.3668 560.865 73.023 565.615 76.1272L565.557 89.9084C562.083 87.7209 553.531 80.9605 538.115 80.1741C526.104 79.5595 519.542 87.3459 519.49 93.9189C519.365 108.898 531.734 107.216 543.745 110.309C560.406 114.596 569.474 118.804 569.109 135.669C568.766 151.372 555.01 161.58 534.375 161.58C524.698 161.58 514.359 158.247 508.151 154.596" fill="black"/>
        <path d="M600.87 71.7002V124.185C600.87 143.867 609.214 152.263 620.422 152.263C632.75 152.263 640.844 143.606 640.844 124.185V71.7002H651.802V123.398C651.802 150.56 638.229 161.58 620.047 161.58C602.865 161.58 589.912 151.346 589.912 123.789V71.7002" fill="black"/>
        <path d="M683.583 159.851H694.026V71.7002H683.583V159.851Z" fill="black"/>
        <path d="M712.266 71.7002H779.531V82.0596H751.073V159.851H740.589V82.0596H712.266" fill="black"/>
        <mask id="mask0_25_169" style="mask-type:luminance" maskUnits="userSpaceOnUse" x="795" y="70" width="53" height="91">
            <path d="M795.312 70.7263H847.568V160.06H795.312V70.7263Z" fill="white"/>
        </mask>
        <g mask="url(#mask0_25_169)">
            <path d="M847.563 71.7002H795.849V159.851H847.563V149.685H805.886V116.851H847.563V106.518H805.886V82.0596H847.563" fill="black"/>
        </g>
        <path fill-rule="evenodd" clip-rule="evenodd" d="M0.645996 0.0595703H137.771V117.476L84.37 49.7679H0.645996" fill="#00467F"/>
        <mask id="mask1_25_169" style="mask-type:luminance" maskUnits="userSpaceOnUse" x="83" y="93" width="139" height="119">
            <path d="M83.3125 93.3928H221.979V211.179H83.3125V93.3928Z" fill="white"/>
        </mask>
        <g mask="url(#mask1_25_169)">
            <path fill-rule="evenodd" clip-rule="evenodd" d="M84.0679 94.4189C101.87 116.44 118.958 139.179 136.563 161.398H220.74V211.179H84.0679" fill="#00467F"/>
        </g>
        <path fill-rule="evenodd" clip-rule="evenodd" d="M146.365 49.5803V10.1428H211.083V152.7H168.094V49.5803" fill="#B9C7D4"/>
        <path fill-rule="evenodd" clip-rule="evenodd" d="M53.8229 58.2263V160.508C60.6198 160.508 68.0521 160.508 75.0938 160.508V200.784H10.8281V58.2263" fill="#B9C7D4"/>
    </g>
    <defs>
        <clipPath id="clip0_25_169">
            <rect width="846.92" height="211.12" fill="white" transform="translate(0.645996 0.0595703)"/>
        </clipPath>
    </defs>
</svg>
