<svg width="513" height="125" viewBox="0 0 513 125" fill="none" xmlns="http://www.w3.org/2000/svg">
    <path d="M494.339 19.1583C496.437 21.2632 498.913 22.3155 501.77 22.3155C504.716 22.3155 507.237 21.2632 509.335 19.1583C511.432 17.0536 512.481 14.5682 512.481 11.7021C512.481 8.83601 511.432 6.32823 509.335 4.17867C507.237 2.02911 504.716 0.954346 501.77 0.954346C498.913 0.954346 496.437 2.02911 494.339 4.17867C492.241 6.32823 491.192 8.83601 491.192 11.7021C491.192 14.5682 492.241 17.0536 494.339 19.1583ZM268.461 46.6387C268.461 46.8587 268.283 47.0371 268.063 47.0371H253.331V74.981C253.331 77.3099 253.912 79.0115 255.072 80.0864C256.232 81.1613 257.928 81.7657 260.16 81.9003C262.094 82.0167 264.43 82.0155 267.169 81.8961L267.84 81.8652L268.042 81.8547C268.27 81.843 268.461 82.0249 268.461 82.2531V97.1953C268.461 97.3983 268.308 97.5686 268.107 97.5908L267.837 97.6201C256.296 98.8547 248.136 97.7125 243.356 94.1929C238.491 90.6101 236.059 84.2063 236.059 74.981V47.0371H224.809C224.589 47.0371 224.411 46.8587 224.411 46.6387V30.7765C224.411 30.5565 224.589 30.3781 224.809 30.3781H236.059V19.2827C236.059 18.9672 236.246 18.6813 236.534 18.5538L252.772 11.3829C253.035 11.2666 253.331 11.4594 253.331 11.7474V30.3781H268.063C268.283 30.3781 268.461 30.5565 268.461 30.7765V46.6387ZM299.781 41.9311C301.388 37.6319 304.043 34.4076 307.748 32.2581C311.137 30.2909 314.883 29.2239 318.983 29.0569L319.261 29.0483C319.415 29.0445 319.583 29.0414 319.73 29.039C319.952 29.0356 320.133 29.2146 320.133 29.4362V47.666C320.133 48.0467 319.802 48.3396 319.423 48.3052C314.442 47.8532 309.97 48.9528 306.007 51.604C301.856 54.3805 299.781 58.9931 299.781 65.4415V97.152C299.781 97.372 299.602 97.5505 299.382 97.5505H282.907C282.687 97.5505 282.509 97.372 282.509 97.152V30.7757C282.509 30.5556 282.687 30.3772 282.907 30.3772H299.382C299.602 30.3772 299.781 30.5556 299.781 30.7757V41.9311ZM359.228 28.4953C368.6 28.4953 375.875 31.7643 381.052 38.3026V30.7746C381.052 30.5545 381.231 30.3761 381.451 30.3761H397.926C398.146 30.3761 398.324 30.5545 398.324 30.7746V97.1514C398.324 97.3714 398.146 97.5493 397.926 97.5493H381.451C381.231 97.5493 381.052 97.3714 381.052 97.1514V89.623C375.875 96.1613 368.6 99.4305 359.228 99.4305C350.301 99.4305 342.648 96.0045 336.265 89.1531C329.883 82.3011 326.692 73.9044 326.692 63.9628C326.692 54.0211 329.883 45.6245 336.265 38.7728C342.648 31.921 350.301 28.4953 359.228 28.4953ZM362.44 45.0208C357.084 45.0208 352.666 46.7897 349.184 50.3275C345.703 53.8653 343.962 58.4107 343.962 63.9634C343.962 69.517 345.703 74.0846 349.184 77.6668C352.666 81.1601 357.084 82.9067 362.44 82.9067C367.796 82.9067 372.236 81.1379 375.762 77.6001C379.288 74.0623 381.051 69.517 381.051 63.9634C381.051 58.4107 379.288 53.8653 375.762 50.3275C372.236 46.7897 367.796 45.0208 362.44 45.0208ZM450.246 28.4953C459.261 28.4953 466.961 31.921 473.343 38.7728C479.725 45.6245 482.916 54.0211 482.916 63.9628C482.916 73.9044 479.725 82.3011 473.343 89.1531C466.961 96.0045 459.261 99.4305 450.246 99.4305C440.874 99.4305 433.643 96.1613 428.556 89.623V124.02C428.556 124.24 428.377 124.419 428.157 124.419H411.682C411.462 124.419 411.283 124.24 411.283 124.02V30.7746C411.283 30.5545 411.462 30.3761 411.682 30.3761H428.157C428.377 30.3761 428.556 30.5545 428.556 30.7746V38.3026C433.643 31.7643 440.874 28.4953 450.246 28.4953ZM447.031 45.0208C441.676 45.0208 437.257 46.7897 433.776 50.3275C430.295 53.8653 428.554 58.4107 428.554 63.9634C428.554 69.517 430.295 74.0846 433.776 77.6668C437.257 81.1601 441.676 82.9067 447.031 82.9067C452.387 82.9067 456.828 81.1379 460.354 77.6001C463.879 74.0623 465.642 69.517 465.642 63.9634C465.642 58.4107 463.879 53.8653 460.354 50.3275C456.828 46.7897 452.387 45.0208 447.031 45.0208ZM493.601 97.551C493.381 97.551 493.202 97.3726 493.202 97.1526V30.776C493.202 30.5559 493.381 30.3775 493.601 30.3775H510.076C510.296 30.3775 510.475 30.5559 510.475 30.776V97.1526C510.475 97.3726 510.296 97.551 510.076 97.551H493.601ZM185.291 53.8195C182.925 52.7 181.743 51.2446 181.743 49.4533C181.743 47.7515 182.479 46.4081 183.952 45.4228C185.425 44.4376 187.277 43.9451 189.508 43.9451C193.787 43.9451 197.02 45.6187 199.206 48.9662C199.358 49.1997 199.655 49.2942 199.91 49.181L214.483 42.7121C214.7 42.6157 214.785 42.3525 214.664 42.1481L214.362 41.6418C214.285 41.515 214.212 41.3957 214.151 41.3007C211.653 37.3608 208.422 34.4258 204.371 32.1897C199.907 29.7266 194.954 28.4951 189.508 28.4951C182.278 28.4951 176.231 30.3984 171.366 34.2049C166.501 38.0114 164.069 43.2285 164.069 49.8563C164.069 54.245 165.252 57.8947 167.617 60.8054C169.983 63.7165 172.861 65.8435 176.253 67.187C179.384 68.4271 182.515 69.4763 185.646 70.335L186.429 70.5457C189.821 71.4415 192.7 72.4491 195.065 73.5685C197.43 74.6879 198.613 76.1437 198.613 77.9348C198.613 81.7862 195.533 83.7119 189.375 83.7119C183.512 83.7119 179.449 81.5375 177.186 77.1899C176.992 76.816 176.547 76.6452 176.162 76.8166L161.631 83.2771C161.426 83.3678 161.337 83.6101 161.434 83.812L161.6 84.1519C166.678 94.3375 175.936 99.4305 189.375 99.4305C197.051 99.4305 203.456 97.5721 208.588 93.8547C213.721 90.1379 216.287 84.8313 216.287 77.9348C216.287 73.3672 215.104 69.5603 212.739 66.5152C210.373 63.4701 207.495 61.2981 204.103 59.9997C200.972 58.8007 197.841 57.7927 194.71 56.9755L193.927 56.7752C190.535 55.9243 187.656 54.9391 185.291 53.8195Z" fill="#212067"/>
    <path d="M0.480957 43.9582C0.480957 23.686 0.480957 13.5499 6.7787 7.25209C13.0765 0.954346 23.2126 0.954346 43.4848 0.954346H81.527C101.799 0.954346 111.935 0.954346 118.233 7.25209C124.531 13.5499 124.531 23.686 124.531 43.9582V82.0004C124.531 102.273 124.531 112.408 118.233 118.706C111.935 125.004 101.799 125.004 81.527 125.004H43.4848C23.2126 125.004 13.0765 125.004 6.7787 118.706C0.480957 112.408 0.480957 102.273 0.480957 82.0004V43.9582Z" fill="#4945FF"/>
    <path d="M86.0752 38.5828H44.3115V59.878H65.607V81.173H86.902V39.4098C86.902 38.953 86.5316 38.5828 86.0752 38.5828Z" fill="white"/>
    <path d="M65.7798 59.8779H64.7798V60.8779H65.7798V59.8779Z" fill="white"/>
    <path d="M44.3115 59.8779H64.7796C65.2366 59.8779 65.607 60.2483 65.607 60.7047V81.1729H45.1386C44.6818 81.1729 44.3115 80.8031 44.3115 80.3461V59.8779Z" fill="#9593FF"/>
    <path d="M65.6069 81.1729H86.9019L66.3126 101.762C66.0522 102.023 65.6069 101.838 65.6069 101.47V81.1729Z" fill="#9593FF"/>
    <path d="M44.3113 59.878H24.0144C23.6461 59.878 23.4616 59.4326 23.722 59.1721L44.3113 38.5828V59.878Z" fill="#9593FF"/>
</svg>
