<svg width="512" height="99" viewBox="0 0 512 99" fill="none" xmlns="http://www.w3.org/2000/svg">
    <g clip-path="url(#clip0_20_11)">
        <path d="M253.816 26.4118C266.506 26.4118 273.82 36.1172 273.82 48.9988C273.82 62.1451 265.625 71.8507 253.376 71.8507C247.513 71.8507 243.168 69.5708 241.003 66.7459L240.861 66.5568V87.5556H229.142V27.3823H240.509V32.6762C242.448 29.3233 247.295 26.4118 253.816 26.4118ZM150.888 26.0589C159.47 26.0589 164.087 29.8589 166.28 33.7463L166.479 34.1108L166.663 34.4753C166.722 34.5966 166.779 34.7178 166.834 34.8388L166.992 35.2008L167.136 35.5607L167.268 35.9176C167.289 35.9768 167.309 36.0359 167.329 36.0948L167.442 36.4461L167.544 36.7929L167.633 37.1343C167.647 37.1908 167.66 37.247 167.673 37.3029L167.745 37.6352L167.806 37.9605L167.856 38.2782L167.896 38.5876L158.114 40.7934C157.761 38.2346 155.911 34.9701 150.976 34.9701C147.891 34.9701 145.424 36.8228 145.424 39.2934C145.424 41.3448 146.913 42.6509 149.169 43.1316L149.389 43.1755L155.559 44.4989C164.106 46.2636 168.425 51.4692 168.425 57.8219C168.425 64.8803 162.96 72.1152 151.593 72.1152C143.033 72.1152 138.155 68.4674 135.664 64.5631L135.434 64.1906C135.36 64.0663 135.288 63.9418 135.218 63.8172L135.016 63.4436C134.918 63.2568 134.826 63.0702 134.739 62.8841L134.57 62.5126C134.516 62.3891 134.465 62.2659 134.415 62.1432L134.273 61.7765L134.143 61.4131C134.122 61.3529 134.102 61.2928 134.083 61.2329L133.971 60.8757L133.872 60.5235L133.784 60.1769L133.708 59.8366L133.643 59.5032L133.588 59.1773L133.545 58.8596L133.527 58.7041L143.573 56.4983C143.837 59.9393 146.394 63.1157 151.505 63.1157C155.382 63.1157 157.233 61.0864 157.233 58.7924C157.233 56.9053 155.983 55.3516 152.837 54.6181L152.562 54.5573L146.834 53.2338C138.462 51.3811 134.673 46.3517 134.673 40.2639C134.673 32.4997 141.546 26.0589 150.888 26.0589ZM445.732 26.0589C454.18 26.0589 458.785 29.7411 461.019 33.5641L461.224 33.9285C461.423 34.2931 461.6 34.658 461.758 35.0201L461.909 35.3811L462.047 35.7395C462.113 35.918 462.174 36.0953 462.231 36.271L462.338 36.6201C462.355 36.6779 462.371 36.7355 462.387 36.7929L462.476 37.1343C462.49 37.1908 462.503 37.247 462.516 37.3029L462.589 37.6352C462.6 37.69 462.61 37.7445 462.62 37.7988L462.676 38.1204C462.684 38.1733 462.692 38.2259 462.7 38.2782L462.739 38.5876L452.959 40.7934L452.911 40.4952C452.866 40.2445 452.806 39.9887 452.731 39.7313L452.632 39.4219C451.872 37.2024 449.901 34.9701 445.819 34.9701C442.734 34.9701 440.268 36.8228 440.268 39.2934C440.268 41.3448 441.755 42.6509 444.011 43.1316L444.232 43.1755L450.401 44.4989C458.95 46.2636 463.267 51.4692 463.267 57.8219C463.267 64.8803 457.804 72.1152 446.435 72.1152C438.012 72.1152 433.154 68.5823 430.628 64.7488L430.39 64.377L430.167 64.004L429.958 63.6304L429.763 63.2569C429.669 63.0702 429.58 62.8839 429.496 62.6981L429.334 62.3276L429.186 61.9595C429.162 61.8984 429.139 61.8374 429.116 61.7765L428.986 61.4131L428.869 61.0537L428.763 60.699C428.747 60.6403 428.731 60.5818 428.715 60.5235L428.627 60.1769L428.551 59.8366L428.486 59.5032L428.432 59.1773L428.388 58.8596L428.371 58.7041L438.417 56.4983C438.682 59.9393 441.236 63.1157 446.348 63.1157C450.226 63.1157 452.076 61.0864 452.076 58.7924C452.076 56.9053 450.828 55.3516 447.68 54.6181L447.406 54.5573L441.677 53.2338C433.304 51.3811 429.517 46.3517 429.517 40.2639C429.517 32.4997 436.389 26.0589 445.732 26.0589ZM490.586 26.0589C503.982 26.0589 512 34.6171 512 48.5575L511.993 49.162L511.975 49.7566L511.948 50.3242L511.886 51.3083L511.825 52.1464L511.824 52.1752H480.805C481.068 57.91 485.915 62.0569 491.732 62.0569C497.086 62.0569 500.071 59.43 501.516 55.6712L501.603 55.4397L511.384 58.3512C509.181 65.8508 502.307 72.1152 491.644 72.1152C479.746 72.1152 469.259 63.5568 469.259 48.9106C469.259 35.0583 479.483 26.0589 490.586 26.0589ZM299.934 26.0589C312.993 26.0589 318.26 33.066 318.754 41.2558L318.778 41.7745C318.785 41.9479 318.789 42.1218 318.791 42.2961L318.792 42.5579L318.794 64.2273L318.806 64.8865L318.83 65.5689L318.864 66.2639C318.87 66.3802 318.877 66.4965 318.884 66.6127L318.931 67.3064L318.985 67.9857L319.044 68.64L319.109 69.2585L319.177 69.8304L319.248 70.3451C319.26 70.4255 319.272 70.5031 319.284 70.5776L319.32 70.7917H308.569C308.366 69.9146 308.215 68.3151 308.156 66.8614L308.135 66.2039C308.13 65.9903 308.128 65.7833 308.128 65.5861C305.925 69.0271 301.783 72.0271 295.351 72.0271C286.097 72.0271 280.458 65.7627 280.458 58.9688C280.458 51.3154 286.023 47.0055 293.103 45.8699L293.412 45.8225L304.075 44.2343C306.543 43.8815 307.335 42.6462 307.335 41.1462C307.335 38.0581 304.956 35.4995 300.02 35.4995C295.005 35.4995 292.195 38.6442 291.759 42.3477L291.737 42.5579L281.339 40.3522C282.043 33.5583 288.3 26.0589 299.934 26.0589ZM401.398 26.0589C414.459 26.0589 419.725 33.066 420.219 41.2558L420.244 41.7745C420.25 41.9479 420.254 42.1218 420.256 42.2961L420.258 42.5579L420.26 64.2273L420.272 64.8865L420.296 65.5689C420.301 65.684 420.306 65.7996 420.312 65.9155L420.35 66.6127C420.357 66.729 420.365 66.845 420.373 66.9607L420.423 67.6485L420.48 68.3167L420.543 68.9544C420.553 69.0575 420.564 69.159 420.575 69.2585L420.643 69.8304C420.678 70.103 420.714 70.354 420.75 70.5776L420.785 70.7917H410.034C409.895 70.1845 409.779 69.231 409.702 68.2194L409.655 67.5395C409.649 67.4258 409.643 67.3122 409.637 67.199L409.609 66.5289C409.599 66.1997 409.593 65.8819 409.593 65.5861C407.391 69.0271 403.248 72.0271 396.816 72.0271C387.563 72.0271 381.923 65.7627 381.923 58.9688C381.923 51.3154 387.489 47.0055 394.569 45.8699L394.878 45.8225L405.54 44.2343C408.008 43.8815 408.801 42.6462 408.801 41.1462C408.801 38.0581 406.422 35.4995 401.486 35.4995C396.47 35.4995 393.661 38.6442 393.224 42.3477L393.202 42.5579L382.804 40.3522C383.509 33.5583 389.766 26.0589 401.398 26.0589ZM188.784 27.3822V52.4397C188.784 57.2924 191.252 61.1745 196.716 61.1745C201.826 61.1745 204.807 57.766 204.908 52.8749L204.911 52.6161V27.3822H216.632V62.9391C216.632 63.1875 216.634 63.4339 216.637 63.6779L216.649 64.4023L216.668 65.1095L216.693 65.7966L216.74 66.7837L216.777 67.4086L216.838 68.2892L216.903 69.0933L216.99 70.0301L217.054 70.619L217.074 70.7917H205.881L205.853 70.6431L205.798 70.2936C205.78 70.1663 205.763 70.0287 205.745 69.8826L205.695 69.4201C205.687 69.3392 205.68 69.2566 205.672 69.1725L205.629 68.6512L205.592 68.103L205.563 67.5379C205.558 67.4428 205.555 67.3474 205.551 67.252L205.535 66.6799C205.531 66.4899 205.529 66.3013 205.529 66.1155C203.15 70.1742 198.125 71.9388 193.543 71.9388C183.169 71.9388 177.193 64.4268 177.066 55.1259L177.064 54.822V27.3822H188.784ZM342.151 6.91281V32.1467C344.089 29.0588 348.848 26.2354 355.282 26.2354C367.972 26.2354 375.287 36.0289 375.287 48.9107C375.287 62.057 367.18 71.8507 354.841 71.8507C348.972 71.8507 344.457 69.3129 342.121 65.7282L341.975 65.498V70.7919H330.606V6.91281H342.151ZM307.335 53.2338V51.2928L297.554 52.7927C294.556 53.2338 292.177 54.9102 292.177 58.263C292.177 60.8217 294.029 63.2921 297.817 63.2921C302.681 63.2921 307.203 60.9785 307.333 53.5642L307.335 53.2338ZM408.801 53.2338V51.2928L399.019 52.7927C396.022 53.2338 393.643 54.9102 393.643 58.263C393.643 60.8217 395.494 63.2921 399.284 63.2921C404.147 63.2921 408.668 60.9785 408.798 53.5642L408.801 53.2338ZM251.524 36.9112C245.533 36.9112 240.686 41.411 240.686 49.0871C240.686 56.7632 245.533 61.3511 251.524 61.3511C257.517 61.3511 262.275 56.8515 262.275 49.0871C262.275 41.411 257.517 36.9112 251.524 36.9112ZM352.814 36.7348C346.91 36.7348 341.975 41.058 341.975 48.9988C341.975 56.8515 346.91 61.3511 352.814 61.3511C358.807 61.3511 363.565 56.9396 363.565 48.9988C363.565 41.058 358.807 36.7348 352.814 36.7348ZM490.762 35.5876C484.785 35.5876 481.447 40.0215 481.084 43.9436L481.068 44.146H500.457C500.28 39.8228 497.459 35.5876 490.762 35.5876Z" fill="#1F1F1F"/>
        <path d="M56.1754 97.0964C53.653 100.273 48.5386 98.5324 48.4778 94.4765L47.5891 35.1534H87.4779C94.7028 35.1534 98.7323 43.4983 94.2397 49.1567L56.1754 97.0964Z" fill="url(#paint0_linear_20_11)"/>
        <path d="M56.1754 97.0964C53.653 100.273 48.5386 98.5324 48.4778 94.4765L47.5891 35.1534H87.4779C94.7028 35.1534 98.7323 43.4983 94.2397 49.1567L56.1754 97.0964Z" fill="url(#paint1_linear_20_11)" fill-opacity="0.2"/>
        <path d="M39.9528 1.64059C42.4752 -1.53624 47.5897 0.204434 47.6505 4.26043L48.0399 63.5834H8.65039C1.42524 63.5834 -2.60435 55.2386 1.88846 49.5802L39.9528 1.64059Z" fill="#3ECF8E"/>
    </g>
    <defs>
        <linearGradient id="paint0_linear_20_11" x1="1060.2" y1="1350.49" x2="3347.46" y2="2309.77" gradientUnits="userSpaceOnUse">
            <stop stop-color="#249361"/>
            <stop offset="1" stop-color="#3ECF8E"/>
        </linearGradient>
        <linearGradient id="paint1_linear_20_11" x1="144.238" y1="-801.502" x2="1612.55" y2="1962.53" gradientUnits="userSpaceOnUse">
            <stop/>
            <stop offset="1" stop-opacity="0"/>
        </linearGradient>
        <clipPath id="clip0_20_11">
            <rect width="512" height="99" fill="white"/>
        </clipPath>
    </defs>
</svg>
