<svg width="512" height="109" viewBox="0 0 512 109" fill="none" xmlns="http://www.w3.org/2000/svg">
    <path d="M53.6436 5.01819V10.0569H44.6313V13.334H53.6436V23.3704H57.1666V13.334H66.4041V10.0569H57.1666V0H53.6436V5.01819Z" fill="#7099A6"/>
    <path d="M24.1896 17.7992V25.1114H10.5483V29.6994H24.1896V44.5492H29.2488V29.6994H43.0949V25.1114H29.2488V10.4869H24.1896V17.7992Z" fill="#EB912C"/>
    <path d="M81.3561 17.7992V25.1114H67.7148V29.9247H81.3561V44.5492H86.6201V29.9247H100.261V25.1114H86.6201V10.4869H81.3561V17.7992Z" fill="#59879B"/>
    <path d="M52.3327 42.7058V50.8987H37.1553V57.0025H52.3327V73.3884H58.4775V57.0025H73.6549V50.8987H58.4775V34.5128H52.3327V42.7058Z" fill="#E8762C"/>
    <path d="M96.9636 46.8433V51.9843H87.7261V56.1423H96.9636V66.4039H101.572V56.1423H110.81V51.9843H101.572V41.7227H96.9636V46.8433Z" fill="#5B6591"/>
    <path d="M9.01226 47.2938V52.2096H0V55.6916H9.01226V65.5232H12.5352V55.6916L21.7728 55.3639V52.2096H12.5352V42.3781H9.01226V47.2938Z" fill="#7099A6"/>
    <path d="M24.1896 70.4389V77.7511H10.5483V82.5645H24.1896V97.1889H29.4536V82.5645H43.0949V77.7511H29.4536V63.1267H24.1896V70.4389Z" fill="#C72035"/>
    <path d="M81.3561 70.4389V77.7511H67.7148V82.3392H81.3561V97.1889H86.6201V82.3392H100.261V77.7511H86.6201V63.1267H81.3561V70.4389Z" fill="#1F447E"/>
    <path d="M53.2132 89.0166V94.1372H43.9756V98.2951H53.2132V108.557H57.8217V98.2951H67.0593V94.1372H57.8217V83.8755H53.2132V89.0166Z" fill="#5B6591"/>
    <path d="M337.263 21.8342V84.1007H330.237V21.8342H337.263ZM162.691 30.5802V50.4481H181.597V57.0025H162.691V78.4066H155.666V57.0025H136.761V50.4481H155.666V30.5802H162.691ZM382.57 44.2215C383.84 44.2829 385.458 44.4878 386.195 44.6721C386.912 44.8564 388.1 45.2866 388.817 45.6348C389.555 45.9625 390.742 46.6794 391.459 47.2324C392.197 47.7854 393.221 48.8096 393.753 49.506C394.286 50.2024 395.044 51.4723 395.453 52.312C395.863 53.1518 396.396 54.6266 396.641 55.5892C396.887 56.5519 397.174 58.4977 397.399 62.4713H373.107L373.251 63.2906C373.312 63.7412 373.578 64.7039 373.783 65.4208C374.008 66.1377 374.582 67.2642 375.033 67.8991C375.483 68.5341 376.159 69.2919 376.507 69.5582C376.876 69.8245 377.613 70.2751 378.166 70.5619C378.699 70.8281 379.641 71.1763 380.256 71.3402C380.87 71.5041 382.509 71.6474 383.983 71.6474C385.438 71.6474 387.527 71.5041 388.612 71.3197C389.698 71.1354 391.234 70.7667 392.012 70.5209C392.791 70.2751 393.815 69.8859 394.265 69.6606C394.716 69.4353 395.187 69.2305 395.31 69.2305C395.447 69.2305 395.528 70.3759 395.535 75.1295L395.535 75.7849L394.327 76.3379C393.651 76.6451 392.258 77.1367 391.193 77.4439C390.128 77.7307 388.182 78.0994 386.851 78.2428C385.028 78.4271 383.799 78.4271 381.894 78.2428C380.501 78.0994 378.474 77.7307 377.388 77.4235C376.302 77.1162 374.725 76.5018 373.906 76.0511C373.066 75.6005 371.653 74.5559 370.752 73.7161C369.83 72.8764 368.683 71.5041 368.15 70.6643C367.618 69.8245 366.962 68.3907 366.655 67.4895C366.348 66.5883 365.979 65.0111 365.836 64.0075C365.672 62.881 365.631 61.3038 365.713 60.0749C365.774 58.9279 366.041 57.2073 366.287 56.2447C366.532 55.282 367.126 53.7048 367.597 52.7422C368.068 51.7795 368.949 50.4072 369.523 49.6903C370.117 48.9734 371.284 47.8674 372.124 47.2324C372.964 46.5975 374.377 45.7986 375.258 45.43C376.118 45.0613 377.613 44.6311 378.555 44.4468C379.682 44.242 381.034 44.16 382.57 44.2215ZM455.549 43.8938V54.8723C455.549 60.9146 455.487 68.1449 455.221 76.0307L453.46 76.5632C452.497 76.85 450.551 77.3006 449.117 77.5259C447.294 77.8536 445.553 77.9765 443.198 77.9765C441.334 77.9765 439.183 77.8741 438.405 77.7512C437.627 77.6078 436.091 77.2186 435.005 76.8704C433.837 76.5018 432.322 75.7849 431.38 75.1704C430.458 74.5764 429.188 73.5318 428.533 72.8149C427.898 72.1185 426.996 70.8896 426.566 70.1112C426.136 69.3329 425.542 67.8991 425.255 66.957C424.825 65.5846 424.702 64.5196 424.6 62.0412C424.538 60.0544 424.6 58.2929 424.764 57.3302C424.907 56.4905 425.276 55.0772 425.583 54.1759C425.87 53.2747 426.546 51.8409 427.078 51.0012C427.59 50.1614 428.696 48.83 429.536 48.0517C430.478 47.1914 431.707 46.3107 432.711 45.8191C433.612 45.389 434.923 44.8564 435.66 44.6516C436.377 44.4673 438.159 44.242 439.613 44.1805C441.559 44.0986 442.686 44.1805 443.894 44.4263C444.816 44.6311 446.188 45.0818 446.987 45.4504C447.766 45.7986 448.441 46.1059 448.462 46.0854C448.499 46.0854 448.52 45.6723 448.523 45.146L448.523 43.8938H455.549ZM238.108 43.8938L238.107 57.5517L238.105 58.9776C238.09 65.3886 238.001 71.6802 237.78 76.0307L236.018 76.5632C235.056 76.85 233.028 77.3006 231.512 77.5668C229.198 77.956 228.153 77.997 224.815 77.915C221.722 77.8331 220.472 77.7102 219.1 77.362C218.117 77.0957 216.437 76.4608 215.352 75.9282C214.205 75.3547 212.832 74.4535 212.054 73.7776C211.337 73.1222 210.313 71.9547 209.821 71.1968C209.309 70.4185 208.633 69.1895 208.347 68.4727C208.06 67.7558 207.63 66.322 207.425 65.3184C207.138 63.8436 207.077 62.7581 207.159 60.1773C207.261 57.6989 207.405 56.4904 207.753 55.2615C208.019 54.3603 208.633 52.8855 209.105 51.9843C209.576 51.0831 210.518 49.7108 211.214 48.9529C211.931 48.1746 213.099 47.1505 213.816 46.6589C214.532 46.1878 215.72 45.5528 216.458 45.2661C217.175 44.9793 218.486 44.5902 219.366 44.4263C220.247 44.2625 221.886 44.1191 222.992 44.1191C224.118 44.1191 225.716 44.2829 226.576 44.4468C227.416 44.6311 228.747 45.0818 229.546 45.4504C230.324 45.7986 231 46.1059 231.021 46.0854C231.041 46.0854 231.082 45.5938 231.082 44.9998V43.8938H238.108ZM279.216 28.3886L279.217 38.797C279.224 45.2164 279.284 45.6268 279.605 45.5324C279.83 45.4504 280.895 45.1637 281.981 44.8564C283.271 44.5082 284.828 44.2829 286.487 44.1805C288.371 44.0986 289.478 44.16 290.87 44.4263C292.058 44.6516 293.472 45.1432 294.721 45.7577C295.807 46.2902 297.24 47.1914 297.916 47.7854C298.572 48.3589 299.616 49.5674 300.21 50.4686C300.825 51.3698 301.583 52.8036 301.91 53.6844C302.259 54.5446 302.689 56.1627 302.893 57.2893C303.139 58.764 303.201 60.0339 303.119 62.0412C303.057 63.5364 302.832 65.4003 302.627 66.1786C302.443 66.957 301.951 68.2883 301.562 69.1281C301.173 69.9679 300.395 71.2583 299.842 71.9751C299.309 72.692 298.223 73.7571 297.445 74.3511C296.687 74.9451 295.295 75.7644 294.393 76.174C293.492 76.6042 291.997 77.1367 291.096 77.3825C289.682 77.7717 288.781 77.8331 284.726 77.8536C280.895 77.8741 279.646 77.7922 278.13 77.4644C277.106 77.2391 275.406 76.809 274.382 76.5222C273.358 76.2355 272.457 75.9078 272.375 75.8258C272.293 75.7439 272.19 65.0521 272.149 52.0458L272.067 28.3886H279.216ZM490.082 44.7745L490.062 55.7531L490.062 56.6163C490.062 56.7564 490.062 56.8945 490.062 57.0307L490.063 58.5776C490.069 65.3941 490.112 66.705 490.38 67.7537L490.41 67.8653C490.435 67.9579 490.463 68.0498 490.492 68.1449C490.758 68.9642 491.25 69.9269 491.659 70.4185C492.048 70.8691 492.868 71.4836 493.482 71.7703C494.076 72.0571 495.223 72.3848 496.002 72.4872C496.841 72.6101 498.029 72.6101 498.869 72.4872C499.647 72.3848 500.794 72.0571 501.388 71.7703C502.003 71.4836 502.822 70.8691 503.211 70.4185C503.621 69.9269 504.133 68.9642 504.379 68.1449C504.412 68.0384 504.442 67.9359 504.47 67.8263L504.49 67.7427C504.745 66.663 504.797 64.7126 504.807 52.5765L504.807 51.597C504.808 51.4302 504.808 51.2616 504.808 51.0911L504.809 48.3946C504.809 48.2053 504.809 48.0141 504.809 47.821L504.809 44.7745H511.998L511.957 56.6338C511.939 66.529 511.921 68.2261 511.637 69.3453L511.61 69.4442C511.597 69.4931 511.583 69.5412 511.568 69.5894L511.538 69.6859L511.507 69.7835C511.261 70.5004 510.749 71.586 510.36 72.18C509.971 72.7944 509.295 73.6342 508.824 74.0848C508.373 74.5354 507.39 75.2523 506.673 75.6825C505.956 76.1126 504.563 76.7066 503.601 77.0138C502.494 77.362 501.02 77.6283 499.647 77.7307C498.418 77.7921 496.452 77.7921 495.244 77.7102C493.871 77.6283 492.376 77.362 491.291 77.0138C490.307 76.7066 488.935 76.1126 488.198 75.6825C487.481 75.2523 486.518 74.5354 486.047 74.0848C485.597 73.6342 484.9 72.7944 484.511 72.18C484.142 71.586 483.63 70.5004 483.384 69.7835L483.368 69.7352L483.335 69.6395C483.304 69.5441 483.275 69.4489 483.248 69.3487L483.222 69.2465C482.947 68.1172 482.925 66.1811 482.872 56.6338L482.79 44.7745H490.082ZM441.477 50.6939C440.699 50.6939 439.511 50.8578 438.856 51.0217C438.18 51.206 437.156 51.6156 436.562 51.9434C435.968 52.2711 435.107 52.947 434.636 53.4591C434.165 53.9711 433.551 54.8723 433.243 55.4868C432.936 56.0808 432.547 57.1869 432.363 57.9447C432.178 58.6821 432.035 60.1363 432.035 61.1604C432.035 62.1846 432.178 63.6388 432.363 64.3762C432.547 65.134 432.895 66.1581 433.162 66.6702C433.428 67.1823 434.104 68.0835 434.657 68.657C435.21 69.251 436.111 69.9474 436.644 70.2137C437.197 70.5004 438.18 70.8896 438.856 71.0739C439.614 71.2992 440.863 71.4221 442.317 71.4221C443.546 71.4221 445.287 71.3197 446.147 71.1968C447.028 71.0739 447.868 70.8896 447.991 70.8076C448.175 70.7052 448.278 68.063 448.339 61.7339L448.4 52.7831C446.188 51.6566 444.959 51.1855 444.222 51.0012C443.505 50.8168 442.276 50.6734 441.477 50.6939ZM221.394 51.0217C220.739 51.206 219.714 51.6156 219.12 51.9434C218.526 52.2711 217.666 52.947 217.195 53.4591C216.724 53.9711 216.089 54.8723 215.802 55.4868C215.495 56.0808 215.106 57.1869 214.922 57.9447C214.737 58.6821 214.594 60.0339 214.594 60.9351C214.594 61.8364 214.696 63.1677 214.819 63.8846C214.963 64.6015 215.331 65.7895 215.679 66.5063C216.089 67.3666 216.745 68.2473 217.584 69.0257C218.404 69.7835 219.366 70.4185 220.206 70.7462C221.23 71.1558 222.049 71.2787 224.159 71.3812C225.654 71.4426 227.539 71.3607 228.542 71.2173C229.505 71.0739 230.406 70.8896 230.55 70.8076C230.714 70.7052 230.836 67.8582 230.939 61.7544L231.082 52.8651C229.28 51.8819 228.276 51.4313 227.662 51.2265C227.068 51.0012 225.675 50.7963 224.589 50.7554C223.237 50.6939 222.234 50.7759 221.394 51.0217ZM285.934 50.6939C285.094 50.7144 283.988 50.8168 283.517 50.9192C283.026 51.0216 281.899 51.3699 280.977 51.6976L279.339 52.2711V70.439C282.78 71.3402 283.517 71.4016 285.811 71.3402C288.064 71.2787 288.802 71.1763 289.887 70.7667C290.604 70.4799 291.608 69.9474 292.079 69.5582C292.57 69.1895 293.267 68.4931 293.635 68.022C294.004 67.5509 294.537 66.5678 294.803 65.8509C295.09 65.134 295.417 63.7617 295.54 62.799C295.725 61.4882 295.725 60.5869 295.52 59.1941C295.356 57.9447 295.008 56.8182 294.496 55.7531C294.086 54.8723 293.369 53.7868 292.919 53.3362C292.468 52.8855 291.649 52.2506 291.096 51.9434C290.563 51.6156 289.518 51.206 288.781 51.0217C288.064 50.8168 286.774 50.6734 285.934 50.6939ZM380.133 51.0012C379.477 51.1855 378.412 51.6566 377.757 52.0458C377.101 52.4349 376.18 53.1928 375.688 53.7253C375.217 54.2783 374.582 55.1796 374.295 55.7531C374.008 56.3266 373.763 56.8796 373.763 57.0025C373.763 57.1391 376.271 57.2199 380.915 57.2273L389.493 57.2278C389.268 55.6097 389.063 54.8109 388.899 54.3808C388.715 53.9711 388.182 53.1928 387.711 52.6807C387.138 52.0458 386.441 51.5952 385.642 51.2879C384.966 51.0626 383.738 50.8168 382.898 50.7554C381.915 50.7144 380.911 50.7963 380.133 51.0012Z" fill="#1F447E"/>
</svg>
