<svg width="809" height="204" viewBox="0 0 809 204" fill="none" xmlns="http://www.w3.org/2000/svg">
    <g clip-path="url(#clip0_20_3)">
        <path d="M261 79.5C261 65 246.9 49.6 222.5 49.6C195.1 49.6 165 69.7 160.4 109.8C155.7 150.3 180.9 168.3 206.3 168.3C231.7 168.3 245 158.4 258.6 145.2C246.9 130.5 231.8 137.3 228.9 138.8C225.7 140.4 221.6 142.6 213.2 142.6C203.4 142.6 193.4 138.2 193.4 119.9C256.2 113.7 261 94 261 79.5ZM229.9 81.9C229.5 86.4 227.7 94.1 195.9 98.4C202.6 74.6 215.4 72.8 221.3 72.8C226.8 72.8 230.3 77.1 229.9 81.9ZM123.5 85.8C123.5 85.8 110 128.2 108.9 131.7C108.5 128.1 98.6 52 98.6 52C75.6 52 63.3 68.4 56.8 85.7C56.8 85.7 40.4 128.2 39 131.8C38.9 128.5 36.5 86.2 36.5 86.2C35.1 65 15.7 52.1 0 52.1L19 167.4C43.1 167.3 56.1 151 62.9 133.7C62.9 133.7 77.4 96.2 78 94.5C78.1 96.1 88.4 167.4 88.4 167.4C112.6 167.4 125.6 152.1 132.6 135.4L166.5 52.1C142.6 52.1 130 68.4 123.5 85.8ZM349.8 49.4C334.9 49.4 323.5 57.5 313.9 69.4V69.3L322.5 0C302.7 0 286.6 17.2 283.5 42.8L268.5 166.5C279.9 166.5 292 163.2 298.5 154.8C304.3 162.3 313 168.3 325.9 168.3C359.3 168.3 382.2 129.5 382.2 93.1C382 59.9 365.9 49.4 349.8 49.4ZM346.7 108.9C343.2 129.2 331.9 143 321 143C310 143 305.3 138.1 305.3 138.1C307.4 120.3 308.7 109.4 312.7 100C316.7 90.6 326.2 75.6 336.1 75.6C345.8 75.6 350.2 88.5 346.7 108.9ZM465.6 52.1H442.3L442.4 50.9C444 35.7 447.6 27.7 459.5 26.4C467.6 25.6 471.2 21.4 472.1 16.8C472.8 13.2 475 0.7 475 0.7C428.2 0.4 413.5 20.6 409.7 51.4L409.6 52.1H409.1C401.5 52.1 393.1 60.7 391.7 71.6L391.2 75.6H406.8L393.7 183.8L389.7 203.2C390.2 203.2 390.8 203.3 391.3 203.3C413.2 202.5 427.2 185.2 430.3 160.1L440.5 75.6H447.8C455 75.6 463.4 68.4 464.9 56.4L465.6 52.1ZM586.8 50.1C559.9 50.1 534.5 69.9 526.7 101C518.9 132.1 530.7 168.9 570.3 168.9C609.8 168.9 632.6 130.6 632.6 98.7C632.6 67 611.1 50.1 586.8 50.1ZM597.7 107.9C596.3 122 590.1 143.4 573.1 143.4C556 143.4 558.4 118.4 560.1 106.5C561.9 93.8 569 75.7 584.3 75.7C598 75.7 599.3 92 597.7 107.9ZM765.5 85.8C765.5 85.8 752 128.2 750.9 131.7C750.5 128.1 740.6 52 740.6 52C717.6 52 705.3 68.4 698.8 85.7C698.8 85.7 682.4 128.2 681 131.8C680.9 128.5 678.5 86.2 678.5 86.2C677.1 65 657.7 52.1 642 52.1L660.9 167.4C685 167.3 698 151 704.8 133.7C704.8 133.7 719.3 96.2 719.8 94.5C720 96.1 730.2 167.4 730.2 167.4C754.4 167.4 767.4 152.1 774.4 135.4L808.3 52.1C784.5 52.1 771.9 68.4 765.5 85.8ZM487.6 0.7L468 158.8L464 178.3C464.5 178.3 465.1 178.4 465.6 178.4C486.7 178.1 501.7 159.6 504.5 136.3L515.8 45.6C519.2 17.9 502.7 0.7 487.6 0.7Z" fill="black"/>
    </g>
    <defs>
        <clipPath id="clip0_20_3">
            <rect width="808.3" height="203.3" fill="white"/>
        </clipPath>
    </defs>
</svg>
